/* XPM */
static char *result[] = {
/* columns rows colors chars-per-pixel */
"64 64 251 2 ",
"   c #010101",
".  c #040706",
"X  c #061404",
"o  c #14130E",
"O  c #000015",
"+  c #050717",
"@  c #00001B",
"#  c #300008",
"$  c #0E2D0D",
"%  c #342719",
"&  c #0F2D25",
"*  c #302634",
"=  c #52000F",
"-  c #6E0411",
";  c #53322D",
":  c #025601",
">  c #115207",
",  c #12581D",
"<  c #285B04",
"1  c #2E520E",
"2  c #266202",
"3  c #346707",
"4  c #297208",
"5  c #397904",
"6  c #386616",
"7  c #387918",
"8  c #364D2B",
"9  c #3E7721",
"0  c #48730E",
"q  c #47791B",
"w  c #487C26",
"e  c #4C7034",
"r  c #3D3C47",
"t  c #582C44",
"y  c #2D574B",
"u  c #34554D",
"i  c #35574D",
"p  c #35594D",
"a  c #38584E",
"s  c #45454B",
"d  c #564C53",
"f  c #475C58",
"g  c #634F51",
"h  c #586943",
"j  c #46605B",
"k  c #48615D",
"l  c #536F69",
"z  c #576D6B",
"x  c #566E6C",
"c  c #58706D",
"v  c #6D7570",
"b  c #8F050D",
"n  c #BA0007",
"m  c #96132C",
"M  c #AF082A",
"N  c #CD0006",
"B  c #FF0000",
"V  c #FF000F",
"C  c #FE0015",
"Z  c #D20F30",
"A  c #FE0027",
"S  c #E90E3C",
"D  c #FF0034",
"F  c #FF003B",
"G  c #F8093C",
"H  c #CF273A",
"J  c #A93743",
"K  c #FE0E41",
"L  c #FE1343",
"P  c #FE1C45",
"I  c #CE3140",
"U  c #FD2247",
"Y  c #FE2549",
"T  c #FC3653",
"R  c #A45A5B",
"E  c #957C74",
"W  c #E0585C",
"Q  c #FB5468",
"!  c #FB6675",
"~  c #1E8100",
"^  c #2F8907",
"/  c #348D04",
"(  c #3A8906",
")  c #358B0C",
"_  c #3C8C0D",
"`  c #2B9401",
"'  c #349302",
"]  c #3C9303",
"[  c #359A00",
"{  c #3C9B01",
"}  c #36930A",
"|  c #3C930B",
" . c #378615",
".. c #3C8B13",
"X. c #3D831B",
"o. c #3D9214",
"O. c #38A200",
"+. c #3E8931",
"@. c #46890B",
"#. c #438E0C",
"$. c #449404",
"%. c #4A9504",
"&. c #449A02",
"*. c #4B9B04",
"=. c #44930C",
"-. c #4A940C",
";. c #449A0B",
":. c #4C9B0C",
">. c #539B0B",
",. c #448514",
"<. c #448B14",
"1. c #4A8D14",
"2. c #44851B",
"3. c #4A861D",
"4. c #448B1B",
"5. c #4A8C1C",
"6. c #528C1B",
"7. c #449213",
"8. c #4B9314",
"9. c #4C9B12",
"0. c #4B931C",
"q. c #469818",
"w. c #4B9B1B",
"e. c #529514",
"r. c #549B14",
"t. c #52931C",
"y. c #549C1B",
"u. c #5B9A19",
"i. c #619E1C",
"p. c #48A405",
"a. c #53A20C",
"s. c #58AA0B",
"d. c #5AB50A",
"f. c #4EA318",
"g. c #53A212",
"h. c #5AA414",
"j. c #5CAB13",
"k. c #54A41C",
"l. c #5BA41B",
"z. c #55AC19",
"x. c #5CAB1C",
"c. c #5CB314",
"v. c #59B817",
"b. c #5DBB14",
"n. c #5BB31B",
"m. c #62B90C",
"M. c #62AB17",
"N. c #61AB1B",
"B. c #62B415",
"V. c #64BC13",
"C. c #62B31B",
"Z. c #64BC1B",
"A. c #6ABA19",
"S. c #468421",
"D. c #4B8423",
"F. c #4C8B23",
"G. c #4D832A",
"H. c #4B8B28",
"J. c #518C23",
"K. c #52892A",
"L. c #4C9323",
"P. c #4C9B22",
"I. c #4C9628",
"U. c #539323",
"Y. c #539B23",
"T. c #569728",
"R. c #599134",
"E. c #639134",
"W. c #4DA324",
"Q. c #59A723",
"!. c #5AB223",
"~. c #63A726",
"^. c #66B525",
"/. c #66A638",
"(. c #76B137",
"). c #5DC80B",
"_. c #5CC115",
"`. c #65C40C",
"'. c #65C313",
"]. c #66C517",
"[. c #69C414",
"{. c #75D116",
"}. c #7BC930",
"|. c #4E9D53",
" X c #6B9645",
".X c #76974F",
"XX c #75A348",
"oX c #78AC48",
"OX c #728579",
"+X c #52BA6E",
"@X c #88CD37",
"#X c #91E130",
"$X c #839C5C",
"%X c #8CAC5B",
"&X c #93AB69",
"*X c #A2B970",
"=X c #90CC4D",
"-X c #AADE5D",
";X c #AACF6D",
":X c #ECF27F",
">X c #6766B8",
",X c #F87885",
"<X c #788B88",
"1X c #779189",
"2X c #7E938E",
"3X c #7D9490",
"4X c #48D6C1",
"5X c #839792",
"6X c #929090",
"7X c #BE978D",
"8X c #BB9C93",
"9X c #8DA397",
"0X c #AEA895",
"qX c #99AEA7",
"wX c #ACB4AF",
"eX c #B7B9AD",
"rX c #AABCB6",
"tX c #FA8993",
"yX c #F59BA3",
"uX c #CAAFA9",
"iX c #F4A3AA",
"pX c #F1B1B7",
"aX c #F4B5BA",
"sX c #B1CA84",
"dX c #ADC2B5",
"fX c #B4C7BB",
"gX c #EFBDC2",
"hX c #BAC7C5",
"jX c #B7CDC0",
"kX c #B9CDC2",
"lX c #BCD1C6",
"zX c #C8C6C4",
"xX c #D7CBCB",
"cX c #C2D5CD",
"vX c #C5D6D1",
"bX c #C9D9D3",
"nX c #CADAD5",
"mX c #DCD8D7",
"MX c #D1DEDC",
"NX c #EECACE",
"BX c #E9D3D6",
"VX c #E5DBDC",
"CX c #E9DDDF",
"ZX c #D3E0DE",
"AX c #E5DFE0",
"SX c #E9DEE0",
"DX c #D9E5E3",
"FX c #E6E4E5",
"GX c #EBE2E4",
"HX c #E8E8E9",
"JX c #F4F2F3",
/* pixels */
"*.B.[.[.j.&.{ d.XX4X+X+.7 | j.V.w.0.F.3.F.y.y.8.5.D.5.Y.z.6.-.{ :.V.'.x.-.O.*.V.A.[.M.&.p.g.5.q.0.%.&.0.w.w.:.[ %.L.w.q.8.=.j.[.",
";.&.B.x.{ :.9.%.|.|.+.@.w.9.&.j.9.[ t.D.D.F.:.| 9.t.D.J.6.&.:.g.$.>.s.p.:.t.;.{ B.h.| a.p.=.5.w.%.&.X.P.t.:.{ g.{ %.g.{ a.e.&.j.",
"N.0.#.S.w.'.B.F.7 ..2.I.`.N.t.` _ y.'.W. .' ..f._.{.F...7.0.B.].j.&.{ 5.c.^.C.g.} ] 5.B.Q.F.#.#.0.n.W.4._ ( b.v.L.7.' 0.Z.C.r.` ",
"V.9.<.D.=.V.V.0.9 ^ 2.7.t.U.0.( <...l.Q.X./ F.w x.d.8...] -.j.[.g.' | G.f.n.Z.U.{ | 1.0.J.D.,. .D.J.v.D...<.T.k.4.F.' S.T.`.t./ ",
"t.&.t.J.S.5.r.;.P.0._ ( 3.D.#.0.0.| 2.D.J.U...2.D.#._ D.5.( $.r.;.8.3.F._ ..F.F.;.H.<.#./ D.K.F.D.1.2.J.t.q.| 7.<.v.k.D.4.5.F.4.",
"1.l.[.v.G.) X.P.I.'.x.D.) 2.Q.b.n.U.2.D.l.[.x.S.4.3.H.w.L.0.} [ r.P.9.w.S. .q P.~.N.K.G.R.n._.!.D...D.c.z.w 7 7 9 x.[.l.S.D.k.!.",
"| 0.j.K.e.$.,.w.b.B.>.#.,.<.y.y.F.3.D.<.*.m.C.5.1.1.F.w.0.-.%.1.%.3.0.F.D.S. .F.Z.T.S..X$X XY.n.>.L.I.Y.w         3 ^.G.] 3.w.z.",
"o.( 5.8.&.r.-.#.u.=.;.;.F.1.4.7.<.3.9.a.&.>.q.4.#.2.0.7.| ' 0.D.8.&.=.<.5.L.S.8./.XXT.}..X XK.J.1 X $   6XmXmXMXDXeX  w 5...{ -.",
"v.<.' [ r.].C.3.D.#.r.v.W.0.5.` _ 3.P.!.h.{ &.F.x.^.F.| _ L.Y.W.k.=.` =.w.q.7.$X&X.X;X=X].G.9 6   E 6Xv uXGXNXNXNXuX  w 3.b.h.{ ",
"p.-.#.| F.A.d.-.D.2.] q.0.F.D.2.2.D.S.t.p.%.1.q.].^.w 8.5.F.j.b.p.,.2.3.0.5.7./.*X*X&X/.T.        BXGXGXHXaXB C B N . q 3.I.:.#.",
"&.=.k.;.8.8.$.O.M.z.} / 5.D.L.w.F.D.D.4.#.s.d.*.0.e.Y.V.F._ e.5.` z.Q.F.] o.I.f.d.;X%   r xXxXxXxXAXSXVXHXNXV Y Y H   U.H.D.3.9.",
"9.n._.c.5.( 2.f.C._.L.7.[ 4.L.f.3.2.2.D.t.b.Z.t./ #.Z.].b.t. .3.a.'.b.t.<./ : > : 0 qXwXeXHXGXGXSXAXSXSXFXNXiXT F Z   M.l.S.G.D.",
"L.I.v.d.-.5.D.D.L.t.X.w r.O.9.5.,. .2.3.G.Y.s.5.F.&.r.V.d.$.5.6.-.d.M.K.L.e g g g d xXCXBXNXSXSXSXSXSXSXSXSXFXQ D Z   6.*.8.F.F.",
"0.q.S.1.&.x.y.D.[ 5.G.Q.V.;.-.1.1.J.x.P.X.| ..p.m.9.] e.-.*.V.m.*.:.8.    v JXJXJXJXT A A Q CXSXSXSXSXSXSXSXCXT A H   @.%.s.b.=.",
"8.<.' =.j.'.Y.<./ <.x.`.].u.] ( r.`.`.W.4.' <.N.x.F.../ =.r.r.t.2.7 7 6XqX8XaXaXaXaXT K D Q VXSXSXSXSXSXSXSXVXpXQ N . ) h.[.N.0.",
"2.4.r.$.*.h.F.<.8.a.$.h.j.g.k.Q.9.x.N.%.;.9.1.D.D.J.G.Q.g.(           mXJXgXB B B B F P D Q FXFXSXSXSXSXSXSXSXJXtXN + e.*.r.1.^ ",
"X.Y._.z.*.=.D.U.Z.B.>.p.( : 3 5 < > 2 $.r.!.y.F.9 , , 5 : OXBXxXxXxXzXVXFXgXD T Y Y K L F T tXiXSXSXSXSXSXSXSXFXtXN @ B.h.<...D.",
"3.D.Y.b.:.{ <.a.V.].M.;.e d f t d d f H.F.k.I.3.0 - = t * 6XHXGXGXGXGXCXFXgXD P K K K K L L B Q SXSXSXSXSXSXSXFXyXI O x.a.1.| 3.",
"| <.3.-.%.r.a.&.a.B.Q.X 5XDXnXMXnXZXlX  4 0     m T B aXGXSXSXSXSXSXCXCXGXaXB P L K K L K P F ! SXSXSXSXSXSXSXSXGXuX. H.&.3.2.( ",
"g.1.} ] e.'.].0.3 3 3 OXwXZXMXMXZXZXMXqX|.h 9XR N U G ,XNXGXSXSXSXSXGXCXGXBXiXT D L K K K P A ! SXSXSXSXSXSXSXSXGXxX  o.u.n.w.3.",
"0.4._ #.3.n.d.6   +   hXDXnXMXMXMXMXMXDX<Xv JX,XA P U B iXVXCXCXSXSXSXSXCXSXHX! F L L K K P F ! BXCXCXCXCXCXFXmXGXeX  X.:.b.k.S.",
"D.D.0.L.1.0.: v fXkXbXnXMXMXMXnXMXMXnXvXuXcXSXSXpXA U U D tXFXCXSXSXSXSXSXSXCXVXiXA Y G K K K P K NXHXFXFXFXHXW J J   w o.7.0.8.",
" .D.5.w.L.4.: d 9XfXnXnXZXMXMXDXDXlX9X9X5X0XxXVXgXC U P V ,XHXCXSXSXSXSXSXSXSXHXiXB P L K K K L F tXiXiXiXiXyXm b - X.P.S...-.8.",
"4.D.<.9.L.H.< .   OX9XjXnXMXnXhXhXwX<X1X1X6X7XmXaXV U P D ! pXVXSXCXSXSXSXSXCXHXgX! T F L K K K L A B n n N n < : 4 g.c.D.2.) 2.",
"0.F. .) S.U.3 @ j y   qXfXkXhX<XOXqXlXlXlXfX7XmXaXC U G P F A NXSXCXSXSXSXSXSXSXSXSXQ D G L L K G U H & X & & 2.K.^.a.&.8.D.D.5.",
"w.0.F. .w l.@.O y j f j l a OXdXhXjXcXMXlXeX7XVXaXC U L K K T K iXFXVXSXSXSXGXGXGXCXQ D S M M M - # # x.Y.( ,.3.z.].Z.a.[ o.5.c.",
"=.5.8.1.D.T.3 @ i j j y y y v lXvXnXbXMXvXeX7XmXaXC U L K K Y B iXHXSXSXGXCXxXxXxXxXI A M - - - . < 4 j.q.[ 8.1.%.b.B.*._ | p.s.",
"#.<.t.c.x.F.1 + i j j j j c 3XfXbXZXMXMXvXeX7XmXaXC Y G K K Y C iXmXVXVXCXxX8X7X7X7Xg = % 1 $ $ o U.b.1.1.] 5.7.4.6.%.5.C.n.9.<.",
"4. .0.].h.:.1 @ p j j f p l 2XkXvXMXMXMXvXeX7XmXpXB Y K K K K K G 7XuXuXuXuX8Xg + * # . 1 ~.D.2.4.V.n.5.1.0.8.8.1.8.-.w Q.).t.,.",
"D.z.*.5.<.*.< @ p j j j p c 2XfXbXMXMXZXvXeX7XmXNX,XP K K K Z S N J E E E E E e : 2 0 3 0 r.#.:.K.:.8.8.0.q.7.1.$.%.x.t. .8.F.U.",
"N.].u.7 2.0.3 @ i j j j i c 2XkXbXMXMXMXvXeX8XBXFXCXL L L K m m M M b         q 0.5.N.[.>.{ 5.y.^.K.{ 5.3.w.F.3.#.t.`.x.X.7 D.b.",
"c.t.J.5.D.H.< @ p j j j p c 2XkXbXMXMXMXlXeX8XVXHXNXG n M Z m - = = = q 5.G.w J.3.,.e.a.%.0.S.G.g.t.4.%.D.F.D.F.D.D.U.D.1.5. .H.",
"4.S.k._.Y.5.< @ p j j j p c 2XjXvXZXmXMXcXeX8XxXmXuXW R - - b 1 : 4 <  .| 0.J.W.z.8.;.%.V.~.D.D.w U.B.9. .2.J.`.!.w  .4.j.m.8.2.",
"5.3.6.V.W.7.2 @ p j j j i x 2XjXbXZXZXMXvXeX8X8X8X8X0X8X+   . / t.^.].g.o.D.8.'.Z.p.{ &.d.'.x.D.3.F.j.F.2._ e.m.V.P.7.{ r.B.!.7.",
"5.5.<.L.2.;.< @ p j k j i x 2XjXbXZXMXMXbX9X; d g d t t 7 1.q t.p.%.a.&.y.y.{ r.*.%.x.*.&.p.p.e.D.2./ 4.D.D.-.&.a.{ *.z.%.-.k.| ",
"0.1.} ` ..~.@.@ p j k j p c 5XfXvXMXMXZXcX1X        3 : 7 J.P.P.y._ ` g.].v.9...8.V.[.B.:.O.u.[.n.8./ ^ y.n.C.r.[ a.V.].N.=.G.n.",
"w.1.4.| D.l.0 @ p k j j i c 2XkXbXMXMXMXvX5X& % $ 7 l.1...2.q.0.D.) | ;.c.c.-.D.5.y.V.h.;.{ e.`.c.-.|  .-.V.M.:.{ *.j.'.r.%.F.u.",
"D.1.<.y.U.G.3 O p k j j p c 5XfXbXZXMXMXDXrXz * 3 N.( 5.D.2.X.0.L.4.x.*.e.a.$.6.w.D.g.;.*.U.S.;.-.-.U.l.*.p.p.&.M.p.%.s.;.p.c.q ",
"2.w l.`.n.0.2 @ p k k j i c 2XjXbXMXnXMXZXcXwXu < J.h.'.Q.L.3.{ H.Q.b.Q.;.O.:.`._.F./ [ B._.U.<.} 3.J.[.N.[ $.B.[.Z.r.` e.V.z.4.",
"D.1.a.].r.{ 3 @ p k j j p c 2XjXbXZXMXMXZXvXfXt < J.%.m.C.:.$.=.$.d.].r.&.8.$.s.c.F._ 2.U.Q.F.3.<.S.G.B.r.-.%.a.B.h.*.1.-.g.w.0.",
"x.r.&.r.=.j.0 @ p k k j i c 2XjXvXMXMXnXZXbXdXs 5 ^.%.-.6.$.h.N.;.*.e.;.s.C.y.&.1.w u.U.w S.D.D.L.F.J.1.' d.l.<.G.F.<.k.J.3.5.5.",
"'.B.9.[ >.].@.O p k j k i c 2XjXbXZXMXMXZXvXfXs 2 ].j...S.r.V.].x.$.[ r.Z.[.^.0.` J.B.^.f. .4.D.n.k._ ' t.x.n.Y.D.^ 2.!.z.F.4...",
"V.>.%.*.&.d.0 @ p k j j i x 2XkXbXMXMXMXZXvXfXs 2 B.%.#.5.=.j.N.D.<.p.&.s.V.r.=.7.<.y.j.*._ 2.n.j.%.1.<.8.L.I.9.G.S.' 0.w.-.-.=.",
":.#.h.c.e.:.3 O p j j j a c 5XfXvXMXMXMXMXvXfXs < 0.-.x.h.5.<.<.D.T.m.a.:.>.#.a.x.F.8.%.1.l.Q.e.9.-.N.d.t.G.4.F.w.l.J.5.4.$.>.x.",
"[ F.T.m.J.G.1 + p k k j i x 5XkXvXZXZXnXMXbXfXs : X.Y.'.Q.3. . .U.'.Z.Q.8.} :.'.'.L.' [ L.l.B.D.D.z.[.`.y. . .D.c.v.w F.D.S.B.[.",
"5.;.*.j.&.L.6 O p k j j i x 5XjXvXZXZXZXZXvXfXs < y.%.P.w.4.S.0.&.>.c.;.$.9.[ g.x.S.F.| ' 0.7.S.J.$.e.M.&.7.F.&.;.0.D.D.D.3.%.s.",
"d.s.]  .$.s.5 @ a k j j i x 3XkXvXDXZXZXZXvXfXu < n.a.| ( F.k.C.p.&.%.%.s.c.p.7.X.G.!.w.| ) } H.W.s.%._ 0.d.c.:./ 4.D.D.0.L.5.-.",
"J.F.2.,.F.b.@.@ p j j f a x 5XjXvXMXnXMXZXvXfXt 2 Q.h.5...X.l.`.C.5.o.J.`.`.k.2.=.n.Z.z.7.3.3.7.W.v.r.,.P.^.d.w.2.2.3.0.P.w.4...",
"D.D.J.G.4.9.3 O p k j j p x 5XkXMXZXZXMXZXlXrXu < f...H.L.,.4.x.t.w G.<.s.l.) <.4.a.} ..D.D.F.5.;.;.D.G./ X.4.2.H.0.w F.5.| } ..",
"2.L._.v.5.8.1 O p k j j a x 5XjXlXZXMXMXDXlXrXr : X.J.Q.b.w.7.o.J.x.I...o.5.:.j.U.,.| 5.D.I.x.G.7.) P.b.k.#.<.D.k._.w.D.3.5.7.l.",
"_ D.Q.b.4.F.1 O p k j j a x 5XkXnXZXZXZXZXlXrXr > 7.u.`.n.F.] ' r.`.].y...) :.V.b.F.D.D.k.b.~.1.) 8.b.].T.1.5.H.S.Y.f.D.2.7 n.`.",
"e.*.,.q.4.F.6 O p k j j a x 5XkXlXZXZXZXDXlXqXr 2 r.$.>.i.{ %.9.&.:.j.O.9.y.[ a.x.{ S.D.D.Q.*.*.r.[ ;.y.@.2.3.S.S.S.S.F.F.4.F.z.",
"[.c.1.D.D.4.1 O u k k k i x 3XkXlXZXnXnXnXdX1X* 5 Z.s.7.#.$.c.'.s.$.<.p.C.n.T.;.$.5.f.H.D.<.-.[.'.p.$.,.K.c.q.G.G./  .H.L.F.S.3.",
"l.U.D.D.D.L.6 @ y u f f a x 5XkXlXlXlXlXkX5X. o X 6 x.F.X.=.s.'.z.7.4.l.V.`.T.o.| 3.q.w.D.3.8.i.[.x.J.2. X;X;X.X X.._ 5.w.L.D.4.",
"w D.3.F.w 1 $ . & & & a p l 2XrXrXdXdX3XOXu   X   $ u.F.D.4.%.u.4.L.4.D.U.a.$.;.u.<.` ,.S.D.2.,.6.5.F.8.&X&X*X%XU.w 3.-.7.L.H.D.",
"F.5.w.P.8           . & y x <XqXqX3X<Xj &   o     $ ;.F.L.D.4.' =.8.F.5.D.4.;.V.V.g.' ' w.L.U.D. .2.U.d.;X0X.X/.p.I.L.3.-.4.k.F.",
"] F.G.6   X .       .   & z v <X5Xk       o   X o $ (.}.{.T.2...| %.1.1.3.G.0.s.b.F.5.<.<.f.b.D.4.5.F.V.d.~.@XO.%.c.n.G.G.w.;.9.",
"L.z.L.D.w     X .   . . .         . o o .         * =X-X%XF.5.5.7.-.$.5.8.J.5.&.6.D.0.0._ / 1.D.Y.D.D.5.8.p.].(.-.0.F. X@X%XE.S.",
"x.k.L.F.D.6 1                 . .         .   e h XX-X-X&XG.5.w.8.3.| #.z._.5.F.2.J.[.0.-.1...T.Z.J.D.D.5.^.@X=X%XS.^ XX#X-XsXR.",
"9.L.F.0.,.] 3   $ $   X o         X X . . X X w XX`..X}.0.w 3.5.-.3.<.,.>.z.3.F.] ;.M.5. .3.1.{ c.V.( D. .8.@X}.XXR.E.R.XX@X=Xu.",
") 4.F.R.$X X .X.4.2.$Xs   o     X         8 .X/.~.G.R.R.F.x.T.D.F.5.u.1.#.D.D.D.w.{ ( ) <.F.0.p.$.>. X$XXXG.8.E..XXX*XoXG.T.p.P.",
"<./ .X&XsX;XA.R.` 8.=X%X<   . X   0 0 1 1 6 XX#X=XQ.X.q (.@X{.E.G.Y.C.s.=.2.X.H.A.g.' [ 7.W._.>.#.E.=X;X;XoX7 D.$X;X-X=XE.7 S.8.",
"2.H.w (.;X&X~.D.L.w.t.}.T.  $ X   i.B.7.S.S.5./.oXH.4.H.K..X~.G.F.F.h.>.G.3.S.k.s.-.8.| o.z.z.F.F.F.0.@X=X(.4.S.o.{.sX%X|.H.K.R.",
"R.&X X` &X X~ X.U.y.D.X.~..X$XE. .6.] ) S.D.4.| F.D.H.x.8.7 w r.Q.7 )  .y.x.w <.{ -.5.F...X.w D.D.3.D.../.Q.q.w.D.a.(.:X4X+X! >X"
};
