/* XPM */
static char *result[] = {
/* columns rows colors chars-per-pixel */
"64 64 232 2 ",
"   c #2E7A0D",
".  c #357C17",
"X  c #3C7E1D",
"o  c #447F1E",
"O  c #457F24",
"+  c #4A7E26",
"@  c #4C7E2A",
"#  c #EA7953",
"$  c #2B8500",
"%  c #2F8D03",
"&  c #378507",
"*  c #348D05",
"=  c #3C8E04",
"-  c #348C0C",
";  c #3C8C0D",
":  c #2E9302",
">  c #299702",
",  c #349403",
"<  c #3B9404",
"1  c #359B01",
"2  c #3B9B02",
"3  c #35920A",
"4  c #3C930B",
"5  c #3C9A0A",
"6  c #2F8615",
"7  c #368614",
"8  c #3A8615",
"9  c #368A12",
"0  c #3C8C13",
"q  c #36831B",
"w  c #3C841B",
"e  c #3D8A1A",
"r  c #3E9213",
"t  c #3A9512",
"y  c #33A200",
"u  c #3CA201",
"i  c #38A800",
"p  c #3D8520",
"a  c #3F8C3D",
"s  c #438E0C",
"d  c #488D09",
"f  c #449504",
"g  c #4A9604",
"h  c #449B03",
"j  c #4A9B04",
"k  c #44940B",
"l  c #4B940C",
"z  c #449A0B",
"x  c #4C9A0B",
"c  c #529C04",
"v  c #52950C",
"b  c #529C0C",
"n  c #569C0C",
"m  c #438514",
"M  c #448C14",
"N  c #4A8D14",
"B  c #43851C",
"V  c #4A861D",
"C  c #448B1B",
"Z  c #4B8C1C",
"A  c #508819",
"S  c #518E1D",
"D  c #449213",
"F  c #4B9314",
"G  c #449A13",
"H  c #4C9B13",
"J  c #45921A",
"K  c #4B931C",
"L  c #459A1B",
"P  c #4B9A1C",
"I  c #529415",
"U  c #539C14",
"Y  c #599C15",
"T  c #52941C",
"R  c #59951D",
"E  c #549B1B",
"W  c #5A9B1C",
"Q  c #629E1C",
"!  c #44A201",
"~  c #4AA906",
"^  c #4CA30B",
"/  c #55A604",
"(  c #53A30D",
")  c #5AA30C",
"_  c #54AA0C",
"`  c #5BAC0E",
"'  c #57B607",
"]  c #5CB405",
"[  c #5BB20C",
"{  c #5DBA0E",
"}  c #4DA314",
"|  c #4EA31C",
" . c #54A314",
".. c #5AA415",
"X. c #54AA13",
"o. c #5CAC13",
"O. c #54A31D",
"+. c #5BA41C",
"@. c #54AB1B",
"#. c #5CAB1B",
"$. c #56B213",
"%. c #5DB314",
"&. c #5CBB14",
"*. c #54B21A",
"=. c #5CB31B",
"-. c #56BA1B",
";. c #5CBB1B",
":. c #60B40A",
">. c #62BB0D",
",. c #61AD15",
"<. c #61A41D",
"1. c #61AC1C",
"2. c #62B415",
"3. c #63BC14",
"4. c #68BC14",
"5. c #63B41B",
"6. c #69B218",
"7. c #64BC1B",
"8. c #6ABC1B",
"9. c #458422",
"0. c #4B8424",
"q. c #468B21",
"w. c #4C8B23",
"e. c #46812C",
"r. c #4D8329",
"t. c #4D892A",
"y. c #508525",
"u. c #518C24",
"i. c #518629",
"p. c #538B2B",
"a. c #459321",
"s. c #4C9322",
"d. c #4C9B22",
"f. c #4D942A",
"g. c #4E9E2A",
"h. c #539423",
"j. c #549B23",
"k. c #5A9B23",
"l. c #549329",
"z. c #5A9528",
"x. c #539B2A",
"c. c #4A8633",
"v. c #568A34",
"b. c #5D9836",
"n. c #649324",
"m. c #658D3A",
"M. c #639539",
"N. c #4EA222",
"B. c #49A626",
"V. c #54A422",
"C. c #5CA422",
"Z. c #54AB21",
"A. c #5CAB22",
"S. c #53A32A",
"D. c #5BA42B",
"F. c #5CAB2B",
"G. c #5CB323",
"H. c #5AB723",
"J. c #5EA133",
"K. c #62AB22",
"L. c #63A72B",
"P. c #62B321",
"I. c #64BB22",
"U. c #6BB925",
"Y. c #64A537",
"T. c #6CAA34",
"R. c #77AC32",
"E. c #6AB334",
"W. c #76B737",
"Q. c #5DC50A",
"!. c #5DC213",
"~. c #5FC812",
"^. c #5DC11B",
"/. c #64C40D",
"(. c #69C60E",
"). c #67C90A",
"_. c #66CA0C",
"`. c #65C314",
"'. c #69C414",
"]. c #65C913",
"[. c #6ACA12",
"{. c #65C31A",
"}. c #69C319",
"|. c #63C81E",
" X c #6ACA1A",
".X c #72C81E",
"XX c #7AD817",
"oX c #79C02C",
"OX c #76C636",
"+X c #52904D",
"@X c #608942",
"#X c #6B9745",
"$X c #759A4A",
"%X c #7A9955",
"&X c #5EB259",
"*X c #6DA242",
"=X c #76A64A",
"-X c #7DB748",
";X c #78A451",
":X c #4AAF6C",
">X c #68D363",
",X c #84CE2B",
"<X c #85C537",
"1X c #87D935",
"2X c #93E234",
"3X c #839C5C",
"4X c #88B54F",
"5X c #88A85C",
"6X c #879D62",
"7X c #8AA269",
"8X c #94A56A",
"9X c #98B565",
"0X c #8CAA72",
"qX c #A3B67A",
"wX c #86C945",
"eX c #98DA45",
"rX c #93CD51",
"tX c #A6DB59",
"yX c #99E047",
"uX c #A4E64A",
"iX c #A4C868",
"pX c #A8D765",
"aX c #ACCB78",
"sX c #B0CC75",
"dX c #BFEA77",
"fX c #C0E67C",
"gX c #614EF1",
"hX c #38B49D",
"jX c #5EF9EA",
"kX c #ABB684",
"lX c #B5CE85",
"zX c #EEF381",
/* pixels */
"j 5.}.'.o.h z ] &XhX:Xa q D ,.4.| K r.w.w.W h.L Z 0.Z x.+.K g u b 2.'.#.l u x 2.8.'.#.z ^ X.Z L S k x P P P U 1 g h.P P I s ` '.",
"z ! 6.<.5 x H g +X:Xc.= P H ! o.H 1 P 0.0.w.x < Y T 0.S h.f x E f b o.! g j.G 2 6.o.< ( ^ s K K g f M f.s.x 2  .5 h  .5 ( E h o.",
"1.P ; w.P ].2.t.o C B f./.1.Z , ; W ].N.7 3 M | }.[.u.0 M F 3.8.#.5 2 K *.I.7.O.t = w.2.+.w.k ; Z ;.B.q.s ; &.7.s.F * J I.7.U , ",
"8.x M r.k 3.3.T t.& V F T z.J = M C C.C.w * q.r.#.' I e < F o.`...2 4 r.N.=.8.R 1 k K K t.r.C 0 0.l.$.r.0 M k.V.Z a.3 B z.>.T 3 ",
"R h T p.9.Z U G d.h.r = Z 0.M K s.; C 0.t.h.C m r.D ; r.F - z Y x F Z w.; 0 u.w.D 0.M s < r.u.t.r.N B u.h.M 0 Z C @.+.0.J Z t.D ",
"N +.'.=.y.- e d.g.`.+.9.- 9.K.&.=.s.B 0.+.[.#.0.C V r.d.s.K 4 1 Y d.L P r.7 B x.A.1.p.i.v.G.!.Z.y.0 0.2.3.E 3 < d.{.(.C.9.r.Z.Z.",
"4 u.%.l.F k V P &.2.c N e N E V.u.V Z Z c >.5.w.N Z w.| h.k k F k Z h.Z w.0.q w.U.L.B %X6X*Xx.2.c N C K d.d.J C f ] A.p.= w.E *.",
"t - V F h U l s k.k k H Z N B D M V E } f j L q.s C K D 4 < K r.F h D M V u.B F Y.=Xz.wX;X@Xr.T j b D V M C G s.p.4 M q.q.0 < l ",
"%.M < 1 E  X5.u.+ s Y ;.d.J Z , M V d.G.+.2 h t.P.A.s.= ; s.g.S.O.D , k K L L 3X8X6XaXeX|.b.B 0.T ].;.w.M ; K { H.d.3 C C &...< ",
"~ D D 3 w.8.` k 0.C 3 } K w.r.C B 0.w.T ( f Z H {.U.@ F V r.%.3.! V V 0.Z K F E.9XqX7XY.C.i.Z 9 0.C.`.w.+ M Z ..' ^ N V w.l.H l ",
"5 z W z F F f u 1.@.4 * Z r.s.K r.q.w.Z s ` [ ! j.T x.4.s.0 F K , @.@.w.4 4 w.u ] iX0X@X7 k.7.h.B 0.w.0.x.w.q.0.M = / #.0.0.C H ",
"T =.~.%.u.* B O.6.!.d.C 1 s.d.| V B m r.T &.7.h.$ s 7.[.;.T m V  .{.;.E D , 4 r.X.T.$Xe w +.2.&.s.& 9.+.~.*.r.V C <.'.}.k.q.r.r.",
"s.g.-.[ l V 0.0.s.h.X r.H i L S C 7 B 9.r.x.~ V u.h Y 2.' l Z S f [ ,.F k K V K } s M y.r.+ t. .M V r._ 2.' D M r.-.}.2.g F w.w.",
"L K q.N h #.j.0.2 Z i.O.3.z l N N u.#.j.w D C ~ `.H 3 I l h 3.` h x x z U d.Z V V 3 K @.V.w.r.N M W p.z F x h _ G.f.W x k ` 3.k ",
"F M * M 2.].j.D * M ,.'.{.<.k = Y /./.S.C , M K.#.w.D 3 l o.].7. .2 , Y ].*.d.K C : D z.-.| 7 D +.).`.+.2 1 Y _.7.p.< > Y [.1.Z ",
"B Z U h j ..r.M K  .k ..` h H W f ) 1.g h H F 0.r.0.y.P j z o.o.f U  .k o.o.G G E w.0 0.y.C s.x k ,.[ f E U h o.o.h x ..j U Z - ",
"B j.~.X.b k r.h.7.2...j h x 5.'...f h s +.H.E q.B + Z.'...! f f I 7.7.( j h f ,./.x.Z e 9.P 4.2.c z f I 4.5...h 2 x 6.`. .M C r.",
"V 0.j.&.x 2 M ) 3.}.` g 3 b 2.}.%.j D k Z O.d.V 0 0.+.`.,.! 4 < ) `.}.2.^ 5 l 2.V.P Z M 3 J k.'./ f < n 4.'.o.f 3 n 4.].Y M 3 Z ",
"4 M w.F f Y ( f b :.k x o.h x ` z h +.J < K Z K V F 0.I K s n W f ( o.h l ..x 2 J w.; F V 0 y.T k x ..z b %.h H ..h x H f V V = ",
"O.N 3 < T ].8.| z h g /. XC.f 4 v o.].G.F 2 h q.V.=.r.7 0.i.2.H.| 4 5 l { /.<.0.e B C.=.Z.w.9.9.y.3.`.| h = l { `.E k y h.=.d.w.",
"S B 0 k Z =.] l 2 D Z  .3.H f < Z h.&.) h G 9 k >.x.B ; C 0.s.X.a.M r t.#.&.z.0.m w p.&...B w 9.w.u.{ F M k r.C.5.J D < x !.O.0.",
"w.w.s.s.N M D g x %.q.8 F g x z.G.s.S N K @.l.N j w.0.Z Z 0.w.C 0.K J 0.+ h.w.a.U r.w.J Z 0.E $.r.w.C V w.~ + + K K Z V 0 D K K ",
"7 0.w.L s.M 0 z s.{.=.C * C +.'.7.f.B w...[./...w 0.t.d.P y.C - Z O.@.t.q B t.=.>.h.w 7 8 u.7.[.+.0.9 o C.).#.w.9 V j.N.q.8 l K ",
"C r.N H s.q.V V s.j.W 0.m q.I ] %.M r.q.g :.7.j r.t.H O.D N V 9.C / %.w.w.0.F ] 4.U * X q.h [ 5.! K O B Z 2.%.N C 0. .o.r.9.; N ",
"J w.e - V w...S 0.B o Z P w.Z Z F s O.s.w.N 0.N ] =.h H C 4 J r.w.M Z ; C j.x h } ; K h.0.w.z P D ! ,.h.9.V m e u.2.( f P r.w.N ",
"P s.w.8 + O._.7.T 8 w N L P u.Z r K !.#.Z k i.T ] 8.U 3 4 +.G.g.u.Z V e ..].P.G , S 6.;.L 0.r.7 Z ..{ `.W 4 D y.o.}.7. .1 D u.%.",
"M K F N i.p.=.{ j 0.C = V Z J Z Z : E Y f S p.F g +.f T 2 ! &._ m Z K V x o...j k 5 o...h J i.q.9 D u 3.G , s N z &.2.j ; 4 h _ ",
"; M h.2.+.0.C C Z s.q.m e r.K s.x.+.N y.u.*.=.+.Z y.+.5.P.~ z H $.$.d.s.C V l +.A. .1 l 5.#.0.m B x.o.N N z K F V S g K 5.=.E M ",
"C 8 h.`...v B w p.&.L V 8 9.u.d.V.) s V + V.;.E S 0.,.4.5.( k V 1.$.f.Z Z s B C.I. .2 k >.,.0.e w >.P.Z N F K K Z N N @ F.Q.T m ",
"r.o.h Z N h Z @ P } 0 3 l.} k Z k 5 1.#.r.0.u.u $.+.k T D 1 a.r.M z Z M f J V y.P 2 +.Y c U s U i.h H Z P K D N l h o.h.w G t.h.",
"=. XW X e s.K P C 1 Z V.`.7.u.% r W [.{.K m r.h.~.'.W = r w.d.s.V 9 C t.L P K m M B #.8.b 2 C h.P.p.2 Z V P r.V f h.).+.p w r.3.",
"%.h.A w.0.0.H K @ P < ../.h.@ w.C * T E V Z K V t.Y F P r 0 F H 0.w.q.m G P r.y.V M R b j S w.r.+.T q.g 0.w.w.r.w.0.h.t.N Z 8 q.",
"C O +.`.x.V 3 C #.8...h x k l.`.#.w.8 B k.`.%.0.N C s.@.d.r < < l.`.C.9 4 K u.S.=.Z 2 g 4.K.0.w.+ u.3.F 8 9.l.].Z.r.w C ` 3.D B ",
"Z V u.7.O.0 , F ` [.8.j 2 k ..'.`.F 0.V b ).`.E 0 V q.E @.l.J , F 3.`. .0 r.F !.7.^ 1 j [ }.1.0.0.u.o.r.m 7 v >.3.d.G 2 Y 2.G.J ",
"Z Z 0 J C 4 +._ 1 ) x k %.j f b x f k. .1  .Y < T #.0.V D P q.h.h l ( h Y E h H x j 1.z h ( ! E 0.C , C r.w.F !  .2 x #.j v V.5 ",
"P Z 4 > B K.].7.H u g 3.].7.U 2 F 2.`.'.+.5 1 _ 6.].1.0 ; w.P f.+.M :  .{.;.H B F 3.'.5.x y W '.#.F 3 - E =.5.Y 1 ( 4.`.K.k r.A.",
"P F Z 3 0.h.4.+.j z x ) ].#.j h k ) 4.+.T 5 h U 1.~.} s M B J d.V 0 4 x %.=.F V N W `.+.j 2 I >.&.l 4 8 F 3.1.x 2 z ,.'.U g 0.Y ",
"V Z M W h.0.b j f 5.Y f o.j l #. .f F m q J P V u...; J t.C C K a.p #.! U ( k R d.+  .h j x.w.z l l R V.z ^ x h ,.^ g ` z ~ 1.B ",
"m 0.C.).=.J 1 ^ >.I.{.b 2 l 5.`.`.z.M ; q.F K u.0.0.+.'.V.s.V < l.D.3.F.x y x /.^.w.3 < 5.^.h.C - V h.'.1.1 k 3.'.8.U > I 3.Z.J ",
"t.V ( '.W h k z ) '.o.k H h b 4.o.q.t.* e T K 0.q.S c [ 5.H f D k ' `.E z F < o.3.w.; C l.V.w.q.C w.i.5.U g g ) 2.+.g D v Y P s.",
"#.U f Y k ) #.H h U f ( 3. .f F N B P Z B r.w.w.%.=.z F R < ..5.x h Y k / G.k.2 S 0.W l.+ r.V r.s.w.r.I < ' +.M t.r.N V.u.V Z w.",
"{.5.H y U }.}.5.j 1 I 8._.5.R , D r.| s.T t.r.X.S.4.,.M 0.E 8.[.#.z 1 Y 8.].U.K , t.2.G.| 8 M t.-.#.0 , h.#.G.k.0.- B Z.#.w.J 8 ",
"3.n g j h ` 2.b h x f n `.h.N M 0.w.0.j. .k q p t.:.j F S s o.A.w.D ^ f o.3.Y k r Z Y o.j 9 9.=.o.g N M F f.f.} r.V < P P x l k ",
"U s ..2.Y x F g +.4.} F K M 0.z.=.w M I f o.@.9.N D F #...N C M 0.z.>.} l U k ) #.u.F x F +.C.I F H K.[ T i.J V L A.w.w.J k b +.",
"1 w.z./.u.t.B ,.`.'.f.r.e e p.(.].h.& 7 ..[.H.j.w w j.`.V.0.e 6 l./.7.D.F 3 x `.{.h.1 1 u.K.2.t.r.o.'.(.k.9 7 r.%.%.+ w.r.9.,.[.",
"S z z <.h Z t.w.r.#.K 0.s.l j ` o.h I x f [ +.0.i.F g d.P C w.w.f b 2.G h H 2 } #.w.q.M * K D 9.r.h I #.h D t.h z K + w.0.w.g o.",
"%.` < 9 g ~ #.t.r.r.r.@ =.[ z z l x 3.>.g f z w.l.%./ 0 r w.V.3.^ h g h ` 5.^ Z w r.G.B.3 - < p.V.$.l ; T { %.x 3 C r.0.J s.V l ",
"u.w.V C w.5.Q.K 7 4 C #.}.5.F 1 M K 3.5.G u < 4 d.V.+.N 0 B C._.5.J M u.`._.| m k =.I.X.D 0.q.J N.%.U M f.P.&.d.B C 0.P d.P N e ",
"t.q.t.y.w.H z B V N 4 ~ *.P < E T , k F 1 O.z.% F ^ M r.h.m J +.T @ t.M ` +.9 M V ^ 3 M w.w.t.V G 5 0.p.* p J B t.s.0.0.w.G 3 w ",
"m l.~.;.Z D B R (.2.T 3 3 0 O.!.7.L , C O.7.}.Y ; ; t.#.;.P M D t.=.l.7 C Z j o.h.B 4 V r.f.A.i.D 0 K ;.O.m M 0.| !.P + V N G @.",
"; 0.x.&.J 0.0.u.6.'.h.Z 4 C t.-.V.J r.7 J ].3.Q Z ; R (.=.f.5 : I ).`.V.r 9 b 4.`.t.w.+ O.^.K.N * H &.{.z.N Z r.r.j.O.w.B w =.`.",
"E j N K V 0.w.0.F E M V M V r.q.q.K W B 0.+...Z j v 5 ) Q h f U h b o.! H | 1 ^ o.1 w.0.r.O.j x U , G +.d V Z B w.9.B w.0.C u.+.",
"(.%.M w.0.C s.s.q.- M S w.j.C m i.z.[.k.0.Z 1 N / {.X.l k k %.`.~ f M ~ 5.=.l.z h J | t.0.M l '.{.^ k m v.{ k t.p.* 7 t.t.w.r.C ",
"+.h.0.r.0.w.J d.w.m M N P L N y.B w k.+.B r.Z N g %.5.r.w k ` `.A.K C k.`./.x.a.M 0.G P 0.V I Q 4.=.u.B #XpXaX3X#Xm 0 J P P q.V ",
"+ r.w.0.9.+ w.Z w.K I g y.Z 0.p.u.V ; 7 w.0.+ j.~ h Z 0.t.M f R s.K C r.l.( k h R M : C 9.w.B m R w.r.H 0XqX9X7Xf.+ w.d N a.w.r.",
"u.V P *.r.@.w.V w.7.`.u.M M T 1.`.h.B - M V L p.I.o.< s.t.w.C < k K K w.r.C z 4.'. ., 3 K h.l.w.7 B l.] lXqX6XJ.~ f.j.V N w.@.w.",
"z w.+  .=.=.0.0.f ] k.a.K N g ] ;.P t.V k , J Z.o., T.1X Xk.w.M ; g F N V r.T ` 3.t.C D M G &.r.V V t.`.] L.4Xi g *.=.c.c.z.l T ",
"Z *.f.+ s.E @.7.Y V 0.J d.h.l x V 0.-.#.H B t.T x iXiXpX9Xt.V Z D l k Z K u.N h S 0.T K M 3 M t.N.w.V K G ~ .XW.x K V *X<XwXM.9.",
"#.@.f.t.t.u.`.(.T.7Xs.+ V.].+.u.w.p. X|.s.w.t.u.8XdXuXpX8Xp.M J K A 0 s #.!.w.q.w.u.`.T N N 8 k.I.u.r.y.Z K.,XtX5X9.  =X2XfXkXm.",
"H s.q.F m $ G G G.*X0.$ t.@.s.0.B * H s.r.s.s @ #XQ.;XOXK + V K N N C M b %.w.0.* j 1.Z ; Z Z h %.3.& u.q F oX,X5Xb.m.b.*X1XwXQ ",
"9 N p.v.%X#X9 C L V 6X;XC + r.v.L.=Xe.C 0.v.%XL.C.v.b.v.r.A.x.w.u.K E N M r.r.9.K u = 9 Z w.P ! f c #X3X#Xe.x M.%X%X9X$Xt.b.! d.",
"C * $X8XlXaX8.v.> s.wXlXOXt.X Y.1XyXW.f p w =XeXwXY.X B R.eX,Xz.+ x.5.` k B w t.7..., 1 D B.;.( s #XrXsXsX-X. r.3XpXpXrX#X  9.I ",
"q.t.i.W.aX9XL.r.s.d.K oXU.r.t.Z R.oX/ N t.0.Z E.-Xt.K w.t.$XL.r.0.0...b y.w.9.O.` F N G r X.#.r.Z t.P <XiXU.B 0.F XXaX9X+Xr.n.+X",
"v.7X$X> 9X#X$ w h.k.0.e L.;X%X#X0 I < 9 V 0.V 0 w.0.t.Z.F X @ U C.m 7 7 k.#.@ D 2 l Z q.e q.0.V 0.0.0.r T.D.L j.0.^ K.zXjX>X# gX"
};
