/* XPM */
static char *result[] = {
/* columns rows colors chars-per-pixel */
"64 64 254 2 ",
"   c #000101",
".  c #010607",
"X  c #150506",
"o  c #021603",
"O  c #030215",
"+  c #001817",
"@  c #131510",
"#  c #29070A",
"$  c #002400",
"%  c #002B00",
"&  c #0C2803",
"*  c #13260C",
"=  c #033804",
"-  c #1D3606",
";  c #003815",
":  c #263213",
">  c #160324",
",  c #29072C",
"<  c #261725",
"1  c #002625",
"2  c #002B2A",
"3  c #083430",
"4  c #2B2726",
"5  c #322F2A",
"6  c #392839",
"7  c #393738",
"8  c #570001",
"9  c #53070B",
"0  c #620000",
"q  c #6B0000",
"w  c #6A000A",
"e  c #780007",
"r  c #6F2400",
"t  c #412E3F",
"y  c #42393C",
"u  c #034100",
"i  c #004B00",
"p  c #164D07",
"a  c #015702",
"s  c #28530B",
"d  c #0F6C0A",
"f  c #296803",
"g  c #2F6B0A",
"h  c #2B7502",
"j  c #377700",
"k  c #386716",
"l  c #397C19",
"z  c #356F28",
"x  c #615C0F",
"c  c #41730E",
"v  c #43791B",
"b  c #4A4834",
"n  c #4A7D25",
"m  c #497D26",
"M  c #4A722D",
"N  c #3E3F40",
"B  c #463745",
"V  c #1F4B49",
"C  c #4A4648",
"Z  c #505252",
"A  c #5C595B",
"S  c #635C5C",
"D  c #496A52",
"F  c #65625E",
"G  c #665D63",
"H  c #536C6B",
"J  c #6A6564",
"K  c #6D6868",
"L  c #716A6C",
"P  c #727270",
"I  c #797674",
"U  c #8D0001",
"Y  c #AE0003",
"T  c #C50100",
"R  c #D30100",
"E  c #D90000",
"W  c #EE0507",
"Q  c #FD0701",
"!  c #FE0A04",
"~  c #F3000D",
"^  c #FF0E08",
"/  c #FE1605",
"(  c #FE130C",
")  c #FD1A16",
"_  c #FE1B18",
"`  c #F92714",
"'  c #A55D12",
"]  c #E6600B",
"[  c #847D7C",
"{  c #E77850",
"}  c #148C00",
"|  c #2A8400",
" . c #378B07",
".. c #3C8C0D",
"X. c #299401",
"o. c #339302",
"O. c #3C9304",
"+. c #359A00",
"@. c #3C9A02",
"#. c #3B930A",
"$. c #38950B",
"%. c #2C8515",
"&. c #398617",
"*. c #3C8B13",
"=. c #3C9314",
"-. c #3AA200",
";. c #3F8B39",
":. c #468A09",
">. c #438E0C",
",. c #449404",
"<. c #4A9504",
"1. c #449A02",
"2. c #4A9A04",
"3. c #44930C",
"4. c #4A940C",
"5. c #449B0C",
"6. c #4C9B0B",
"7. c #539B08",
"8. c #539C0B",
"9. c #458514",
"0. c #448C14",
"q. c #4A8C15",
"w. c #44851C",
"e. c #4A861D",
"r. c #458B1A",
"t. c #4A8C1C",
"y. c #528C1D",
"u. c #449214",
"i. c #4B9314",
"p. c #459B13",
"a. c #4C9A13",
"s. c #45931B",
"d. c #4B931C",
"f. c #469B1B",
"g. c #4B9B1B",
"h. c #519515",
"j. c #539B15",
"k. c #52941C",
"l. c #539C1B",
"z. c #5B9A1A",
"x. c #629F1C",
"c. c #43A201",
"v. c #4BA704",
"b. c #55A907",
"n. c #53A30B",
"m. c #5BAC0D",
"M. c #5AB508",
"N. c #4CA419",
"B. c #54A213",
"V. c #5AA514",
"C. c #5CAB13",
"Z. c #55A41C",
"A. c #5BA41C",
"S. c #54AB19",
"D. c #5CAB1C",
"F. c #5CB314",
"G. c #5AB917",
"H. c #5CB31B",
"J. c #62BA0B",
"K. c #61AB19",
"L. c #75AD1F",
"P. c #62B314",
"I. c #63BC14",
"U. c #63B41A",
"Y. c #63BB1B",
"T. c #6AB919",
"R. c #458421",
"E. c #4B8423",
"W. c #4C8B23",
"Q. c #4D832A",
"!. c #4C8A29",
"~. c #518C24",
"^. c #528629",
"/. c #538B2B",
"(. c #4D9323",
"). c #4C9B23",
"_. c #4E992A",
"`. c #539323",
"'. c #539B22",
"]. c #589927",
"[. c #568834",
"{. c #5D9634",
"}. c #639136",
"|. c #4CA425",
" X c #59A722",
".X c #5AB422",
"XX c #5AA538",
"oX c #64A827",
"OX c #68B627",
"+X c #68A538",
"@X c #75B335",
"#X c #5BC508",
"$X c #5DC313",
"%X c #65C50C",
"&X c #65C314",
"*X c #66C617",
"=X c #69C314",
"-X c #75D116",
";X c #78C72F",
":X c #508F49",
">X c #6A9844",
",X c #73954F",
"<X c #75A349",
"1X c #75A94E",
"2X c #728D6D",
"3X c #52BA6E",
"4X c #61AC61",
"5X c #AD861E",
"6X c #88CF36",
"7X c #91E130",
"8X c #829B5B",
"9X c #8BAB5B",
"0X c #849271",
"qX c #90AA6E",
"wX c #A3B778",
"eX c #90CF4A",
"rX c #97C565",
"tX c #AACE6D",
"yX c #AEDF62",
"uX c #5F4FEE",
"iX c #48D6C1",
"pX c #8B8785",
"aX c #918D8B",
"sX c #8D928C",
"dX c #94938D",
"fX c #939492",
"gX c #9A9996",
"hX c #A19B99",
"jX c #95AB88",
"kX c #A6A69D",
"lX c #A6B392",
"zX c #AAA5A3",
"xX c #B3AEAA",
"cX c #AEB3A2",
"vX c #B2B8A7",
"bX c #B6B1AC",
"nX c #B9B4AE",
"mX c #B3B3B0",
"MX c #BBB6B2",
"NX c #BEB9B5",
"BX c #C0BCB6",
"VX c #C3BDB9",
"CX c #C8BFBF",
"ZX c #A9C98B",
"AX c #BCC1B4",
"SX c #C4CCB7",
"DX c #C5C1BC",
"FX c #C9C4BF",
"GX c #CBC4C1",
"HX c #CCCAC6",
"JX c #D5D1CE",
"KX c #DFE3DA",
"LX c #E9EBE6",
"PX c #FAFBF9",
/* pixels */
"2.P.=X=XC.,.5.M.4X3X3X;.l u.C.I.g.g.E.E.W.k.'.p.t.E.e.'.Z.y.,.-.7.P.=XD.4.-.2.P.T.=XK.@.v.B.t.p.y.,.1.(.g.g.4.+.2.k.).f.q.,.m.=X",
",.c.U.D.@.2.6.<.:X3X!. .s.p.1.C.j.+.g.E.E.W.4.O.j.k.E.W.k.1.6.B.,.8.m.c.4.l.5.@.U.V.O.n.2.u.d.d.,.1.0.(.k.6.@.B.#.1.B.@.n.h.1.C.",
"D.d.0.e.g.&XP.Q.z *.w._.%XK.y.X. .l.&X|...o.u.N.*X*XW.0.u.t.P.*XC.@.O.d.F.OXU.B.$.O.e.P. XW.3...t.G.|.R.#...G.Y.(.u.o.d.OXY.j.o.",
"T.6.0.E.3.&XJ.g.;.| t.u.k.`.i...q.r.Z.A.l  .W.m D.M.4.*.O.4.C.&XB.@.#.Q.N.H.Y.`.+.3.i.i.~.E.9.*.E.`.G.E.&.0.z.l.r.(.o.e.`.J.k.o.",
"h.1.k.~.R.t.j.p.).`.*. .e.E...d.(...w.E.~.k.0.&.E.0...E.q.#.,.j.2.i.e.E.....`.E.u.E.0.>.O.W.!.W.Q.0.e.^.k.*...t.0.S.Z.E.u.t.W.r.",
"q.A.=XG.Q...&.)._.I.C.e. .R.K.G.H.d.w.R.A.=XD.E.r.t.Q.f.(.d.#.+.j.).N.g.E.%.v '. XK./.Q.[.H.$X XQ.0.E.F.G.'.o.$.).*X=X XR.E.|. X",
"$.~.C./.i.,.9.i.$XC.7.0.&.q.'.l.W.t.E.q.2.J.H.W.q.q.W.g.d.3.<.i.,.W.d.t.E.R.&.(.T. Xq.2X8X>X'.F.7.q.0.i.l.d.s.q.,.M.K.^...r.j.G.",
"=. .0.i.1.j.4.u.z.3.,.6.(.q.r.u.q.e.a.B.@.7.i.r.>.r.d.u...@.t.E.q.1.u.0.t.W.w.i.+X<X].;X,X>XQ.t.1.7.3.e.0.s.=.g.W.>.=.t.r.*.,.3.",
"F.0.O.+.B.=XU.W.E.>.j.G.).s.t.o...e.(..XV.@.1.W.H.oX(.....(.'.|.Z.0.o.3.g.p.i.8XqX8XtX6X*X{.e.R.k.&XG.E.*...g.M.H.).$.r.r.G.V.O.",
"v.5.>.$.W.T.m.4.E.w.O.p.d.W.E.r.w.E.R.g.n.,.t.p.&XOXn i.t.E.F.F.c.0.r.e.t.d.u.+XrXwXqX+X Xn t...E. X%XW.m q.t.j.b.v.>.e.e.(.6.4.",
"O.5.l.5.s.4.,.-.K.S.$. .t.Q.(.s.E.W.E.t.>.b.F.1.l.i.].I.(...q.h.o.S. XE.O.#.E.-.M.rX0X>X%.z.I.`.w.e.W.E.'.E.E.t.u.O.7.D.E.n t.a.",
"i.H.$XF.y. .&.Z.U.$X(.u.+.d.(.N.w.e.9.E.h.G.Y.z.| >.I.*XG.k.&.e.n.&XG.l.0.o.$.E.n.+X,X*.w.Z.I.G.W. .R.A.$XG.Q.r.r.V.=X=Xz.R.Q.E.",
"(.|.H.M.4.e.E.E.W.`.l E.a.-.f.y.9.&.w.r.E.'.v.E.~.1.j.P.M.<.t.y.4.M.F.i.3.d.e.t.B.>.0.^.E.m E.B.>.E.E.n.P.M.3.q.R.G.=XK.1.i.W.E.",
"d.s.r.q.1.D.l.E.+.t./.Z.I.c.4.q.q.~.D.(.&.=.s.v.%Xa.O.h.4.1.P.M.1.4.6.,.j.g.d.t.r.$.t.S.'.W.e.e.0.l.~.3.4.5.,.v..X_.z.6.,.m.I.3.",
"u.q. .#.C.%Xl.0.o.0.V.=XY.K.O. .z.%X%X|.r.o.0.K.D.(.0.o.4.C.%XI.n.+.o.z.&XS.).s.r.X.q.`.G.N.&.0.V.%X*XB.O.@.j.%XY.^.@.X.j.%XU.t.",
"w.q.l.,.2.Z.W.q.j.V.2.V.m.1.a.z.,.b.K.<.5.i.i.E.m E.n l.1.5.F.V.,.j.n.5.m.m.=.6.j.t...E.!.0.d.6.,.C.F.,.l.B.2.m.K.v.8.B.2.j.t. .",
"w.'.$XS.2.3.s : d a s ,.1.6.U.&XV.,.1.>.B..Xg.E.w.m Z.*XV.1.3.1.4.Y.Y.n.2.1.1.C.%X].e.&.R.d.I.P.n.,.,.h.T.Y.v - p a s V.B.0.&.~.",
"e.R.'.$X6.@.- a x Y   ,.O.6.P.*XC.2.3.3.t.Z.(.t.*.R.A.&XP.c.3.O.7.&X*XP.1.,.<.P.|.g.d.0.#.u.].%Xb.,.O.7.%X*Xk % x Y # f.V.9. .t.",
"O.0.E.4.2.A.s x ] W   q.C.,.,.m.2.1.B.d. .t.i.d.t.q.E.p.t.>.7.l.,.n.C.1.4.B.6.O.q.E.3.3.r...n z.,.6.B.,.6.P.s x 5XQ 9 l 2.t.e. .",
"l.q.O.O.h.*Xa E Q W . M.-X X5.5.h.H.*X.Xa.-.c.W. XH.W.*.W./.P.G.|.5.5.a.&X*XD.t.s.R. XH. XW.~.^.^.I.*X Xs.u.d Y Q ( 9 } z.H.g.E.",
"k.r...>.t.C.a Y T Y   :.n.c j d j j h.:.j j d h <.m k f f k v q.l h f g 4.4.n k d f c a.r.k d f k v 2.j h j ; U T Y # f 6.M.Z.E.",
"E.E.d.(.t.0.p . ; ; 7 >   % 4 6 6 6 O   - : B y O   & 5 B 7   . * 6 t y >   & 5 C C 6   * : C C < > B B B 4 X H H V y * *.u.d.d.",
"&.E.t.f.W.0.% v ..jXVXaX% O.qXNXMXMXZ = v.rXMXMXC k :.jXVXxX@ l i.cXnXBXK p 5.jXVXVXpX  *.>XMXDXK P HXBXVXpX7 PXLXCXkX$ W.&.5.i.",
"r.R.q.p.(.R.- k 1XvXFXsX  | 0XVXNXBXZ u X.9XVXNXC h X.qXCXxX@ h  .cXBXVXL u X.qXVXVXpX  r.XXMXCXJ P JXDXCXaXN PXPXVXzX% Q.R. .e.",
"d.W.&...e./.$ I JXDXVXsXo lXcXBXMXNXC Z lXkXNXNXy 2XlXcXVXxX  sXlXMXNXVXJ Z lXcXNXVXpX. bXvXNXCXJ K GXNXNXaX4 HXHXVXzX% k.W.E.t.",
"g.d.R.&.m  X= pXDXnXDXsX5 VXVXNXNXVXb J GXVXVXNX7 fXCXNXVXbX  zXCXNXNXCXJ K GXVXBXDX0X4 VXVXNXCXK K DXMXDXaX@ bXMXVXzX$ $.*.y.F.",
"u.i.i.q.E.[.$ [ NXbXBXaX4 bXbXbXbXbXy S bXxXbXxX5 pXbXbXMXzX  hXMXbXbXNXJ F NXbXbXBX[ 4 bXbXbXNXJ J NXbXNXaX@ xXbXMXgX$ 0.#.-.m.",
"..0.`.F.D.W.* < 6 < @ X . 1 2 2 2 1 . + 1 1 1 1   1 2 1 2 1   1 2 2 2 2 + + 2 2 2 2 + . 2 2 2 2 + + 3 3 3 1 X < <     : H.H.h.0.",
"r.&.k.&XV.4.* s h 2XhXP 8 R R R R R R R R R R R E R R R R R R R R E E R E E E E R R E E E E R R E E E R E Y ; c [.hXpX   X#Xk.9.",
"E.m.1.~.q.2.& b @.ZXHXsX8 _ ! ^ ^ ^ Q Q ^ ^ ^ ! Q ! ^ ! ^ ! Q ! ^ ^ ^ ^ Q Q ^ ^ ! ^ ! Q ^ ^ ^ ^ Q Q ^ ( ( E ; ,.>XFXzX$ w.f.W.k.",
".X=Xz.l &.(.& M O.jXCXsX8 ) Q Q Q Q Q Q Q Q Q Q Q Q Q Q Q Q Q Q Q Q Q Q Q Q Q Q Q Q Q Q Q Q Q Q Q Q Q Q ^ R ; }.4XNXkXo w.&.Q.G.",
"F.k.E.t.E.Q.  0XnXvXVXsX8 ) Q Q Q Q Q Q Q Q Q Q Q Q Q Q Q Q Q Q Q Q Q Q Q Q Q Q Q Q Q Q Q Q Q Q Q Q Q Q ) R 3 nXnXBXzXo t.t.&.E.",
"t.v l.$X].!.  aXHXVXHXfX8 ) Q Q ! Q Q Q Q Q Q Q Q Q Q Q Q Q Q Q Q Q Q Q Q Q Q Q Q Q Q Q Q Q Q Q Q Q Q Q ( R V VXVXGXzXo K.J.i.w.",
"t.t.~.I.Z.r.% A [ I [ A 8 ^ Q Q Q Q Q Q Q Q Q Q Q Q Q Q Q Q Q Q Q Q Q Q Q Q Q Q Q Q Q Q Q Q Q Q Q Q Q Q ^ R 2 [ pXpXI = h.P..Xs.",
"r.t.*.(.r.#.: o % $ 5 + 8 Q Q Q Q Q Q Q Q Q Q Q Q Q Q Q Q Q Q Q Q Q Q Q Q Q Q Q Q Q Q Q ! Q Q Q Q Q Q Q ! R . $ $ 4 > - 2.4.Z.$.",
"g.t.O.X.e. X- /.-.jXGXsX8 ) Q Q Q Q Q Q Q Q Q Q Q Q Q Q Q Q Q Q Q Q Q Q Q Q Q Q Q Q Q Q Q Q Q ! ! ! Q Q ( R u  XXXNXkXu oX4.E.D.",
"i.i.u.#.E.].- M v.jXFXdX8 ` W Q Q Q Q Q Q ! Q Q Q Q Q Q Q Q Q Q Q Q Q Q Q Q Q Q Q Q Q Q Q Q Q Q Q Q Q Q / R i 2.|.VXzX= l.4.E.z.",
"E.t.r.l.`.Q.o 0XBXnXVXfX8 ) Q Q Q Q Q Q Q Q Q Q Q Q Q Q Q Q Q Q Q Q Q Q Q Q Q Q Q Q Q Q Q Q ! Q Q ! ! Q ( R 3 cXcXVXhX$ a.c.C.w.",
"w.E.A.%XH.`.% aXDXMXDXfX8 ) Q Q Q Q Q Q Q Q Q Q Q Q Q Q Q Q Q Q Q Q Q Q Q ! Q Q Q Q Q Q Q Q ! Q Q Q Q Q ( R V CXVXCXzX$ k.J.Z.s.",
"E.e.n.&Xj.f.$ pXVXMXVXsX8 _ ( _ ) ) ^ ( ( ) ) ) Q / / ( ) ) Q / / ) ) ) ! ( / ( ) ) ( ( / ( _ _ ^ ( _ _ _ R V VXMXVXkX$ k.V.g.d.",
"D.a.@.k.5.V.s , B 4 5 < X 0 8 8 0 0 q q q 0 0 0 9 w w 8 8 0 q w w 8 8 0 e w w 0 0 8 q q 0 0 0 8 q q 0 0 8 9 .   X 5 < : ^.t.e.e.",
"&XP.4.-.8.=Xs c | fXgXP = O.2XfXfXfX3 D &.2XgXsX> | $.2XhXsXO X.} [ fXfX3 z @.2XfXfXZ 3 %.D kXgXZ D zXgXgXI : GXHXgX0Xp D.W.q.*.",
"I.7.2.2.2.M.b d ZXKXVXhX= ,.qXGXDXFX4 kXPXLXVXNX, 8Xv.qXHXnX< +XZXHXVXGXy dXLXSXDXFXP F LXLXGXGXK I JXHXGXgXA PXPXDXxX= ).4.3.3.",
"8.>.V.K.j.g.% 2XLXJXBXdXo >XjXVXMXNX4 gXPXKXMXNX  mXKXAXNXbX  HXPXGXnXVXy pXPXKXbXDXP N LXLXNXVXJ L HXVXVXdXZ LXKXVXzXo (.,.8.D.",
"+.E.].%XW.[.$ gXVXnXVXaX5 NXNXMXNXNXy I NXNXNXnX@ aXGXMXNXxX  zXNXmXNXBXC A BXMXMXDXP 4 xXbXMXVXJ J AXMXVXdX5 nXnXVXzX& E.R.F.=X",
"d.4.,.V.1.(.o aXCXNXGXfX7 NXDXVXVXNXb [ GXDXDXNX@ dXDXNXVXbX  zXGXVXDXDXZ F FXVXDXDXI 5 VXFXVXFXJ K HXVXCXhXy CXVXDXxX% E.E.2.C.",
"F.b.O.*.<.b.s B A D J B . A F G G G O B P K L K . B G S G A   A K K K L > , F J J J 6 O J K J L 6 6 P L I Z < P P P K   r.(.e.4.",
"~.W.w.9.~.P.f @ r e   g j f a a i a c g a a a i g f p i i i k | p i i u c  .i i i h f f i u i i f j i i u f i e T U   k ).f.q.&.",
"E.E.(.E.r.a.: d ' ) + a.G.'.5.'.].=.v.g.N.N.].=.i.S.d.!.`.r.g.oX].[./.d.F.oX=.s.`.S.$.s.!././.`.d.p.!.[.=._.s b 5X` 9 z d.#.o.&.",
"r.(.$XH.t.i.u ' ] ~ .  .#.*.N.$XG.a.o.r.Z.G.I.x... .~. XH.g.q.*.t..X(.&.&.r.7.C.W.w.#.r.Q._.Z.E.0. .g.G.B.0.a x 5X` 8 z e.r.p.A.",
"..E.].G.q.E.; w U 0   w.$.r.^.G.|.d.E.&.t.&X&Xz.t. .z.%XH.W.O.o.h.%X*Xl.=...8.I.&XW.E.e.Z.$XoXi. .a.G.*X`.d.p 0 U w X z r.l H.*X",
"j.2.q.f.e.~.z d d z k e.q.t.E.R.R.h.k.e.E.Z.n.t.<.h.1.8.K.@.,.j.@.7.C.c.p.a.+.n.C.@.R.m E. X2.<.a.@.5.z.:.R.m d d d k m e.r.W.Z.",
"%XC.0.E.E.r.(.~.~.O.0.y.E.).r.9.Q.].%X'.E.r.@.:.b.*Xm.3.3.3.F.*Xb.1.0.v.I..X/.@.O.r.N.W.E.0.4.=X&Xv.,.w./.M.4.~./...*.W.(.W.R.t.",
"A.`.E.E.E.E.s.g.W.l 0.4.g.p.q.E.w.&.x.Z.R.W.t.t.<.F.H.Q.*.3.n.&X Xu.q.'.=XJ.].s.3.E.p.).R.t.h.x.I.D.~.9.>XtXtX8X>X&.*.d.g.(.R.e.",
"E.E.E.E.E.E.E.t.E.g.j.<.W.e.E.~.~.e. .&.R.E.m g.v.1.i.E.E.r.1.h.d.t.r.E.`.B.3.1.z.u. .*.E.E.w.9.k.W.E.i.qXwXqX8X`.m e.>.u.W.W.E.",
"E.t.g.S.W.N.(.t.W.I.I.y.0.0.k.K.I.`.w. .0.r.f.Q.U.C.O.W.W.E.t.O.3.d.d.W.E.0.5.I.I.j.o.o.d.(.(.t.&.w.`.M.tXjX9X+Xv.'.(.t.:.(.S.E.",
"O.E.n N.G.Y.E.E.,.M.].s.d.q.,.J.G.g.E.e.>.o.(..Xm.O.@X6X-X'.E.*.#.<.q.i.t.E.t.C.I.W.w.u.0.p.G.Q.r.t.W.I.b.K.1X-.3.F.G.Q.Q.i.5.g.",
"W.G.(.m W.j.S.H.z.9.E.d.g.d.4.2.t.Q.G.D.p.0.E.i.7.rXrXeX9XE.e.s.u.4.3.q.q.~.t.1.d.m k.i.*.o.q.Q.'.E.E.d.4.M.-X@X<.d.R.>X6X9X{.R.",
"D.Z.(.W.Q.W.*X%XoX8XW.E. X%XA.Q.e.W.*X*X(.W.E.~.qXyXyXyXqX/.q.d.d.e...:.S.$Xt.t.w.`.I.k.q.q.*.l.Y.~.E.E.W.oX6XrX9XR.j <X7XyXlX}.",
"N.d.W.i.9.| p.5..X<XQ.| E.S.W.e.n o.p.`.E.`.9.E.>X%X1X;Xt.E.e.q.4.9.0.r.8.F.E.E.O.2.K.r.*.e.q.,.P.G. .W.&.4.-X6X<X{.>X{.<X6X6Xx.",
"..r.W.{.8X<X&.w.f.e.8X1X0.m !.[.K.<XR.*.E.^.,XoXoX!.{./.^.A.].Q.W.d.k.0.0.E.E.R.i.-...*.s.W.d.1.,.n.>X8X>Xm i.}.8X}.rX8X!.].c.).",
"*. .,XqXZXtXT./.X.d.eXtX;X!.l XX7XeX@X,.&.w.<XeXeXXXl v @X6X-X}.m '.T.m.3.w.&./.I.j.o.+.u.|.&Xn.:.}.eXtXtX6Xl Q.8XyXyXeX}.l R.i.",
"r.!.n L.tXqXoXE.W.g.k.@XOXE.Q.t.@X@Xb.0.~.E.t.OX1X!.d.E.Q.<XoXQ.E.W.B.7.E.E.R.Z.M.4.q.=.*.S.S.E.e.W.(.6XrXOXt.e.:.6XyX9X:X_.^.:X",
"/.qX,XX.9X>X| &.`.].E.&.oX<X8X>X&.4.O.=.e.Q.t.=.y.E.W. Xa.l m j.].&.&...'.D.n 0.@.4.t.t.*.w.E.E.E.e.m *.+X].f.k.9.2.7XSXiX4X{ uX"
};
