/* XPM */
static char *result[] = {
/* columns rows colors chars-per-pixel */
"64 64 254 2 ",
"   c #000001",
".  c #030B02",
"X  c #06030B",
"o  c #091505",
"O  c #151A06",
"+  c #020014",
"@  c #080817",
"#  c #01001C",
"$  c #09061B",
"%  c #150D11",
"&  c #081519",
"*  c #092704",
"=  c #132C03",
"-  c #182809",
";  c #183908",
":  c #112812",
">  c #1C3515",
",  c #223509",
"<  c #213817",
"1  c #090523",
"2  c #08182A",
"3  c #070235",
"4  c #0D1530",
"5  c #221029",
"6  c #132930",
"7  c #25342F",
"8  c #1A4309",
"9  c #1F540F",
"0  c #264902",
"q  c #264718",
"w  c #357211",
"e  c #387716",
"r  c #114023",
"t  c #284924",
"y  c #397428",
"u  c #437A15",
"i  c #496F2D",
"p  c #457B23",
"a  c #487926",
"s  c #497D25",
"d  c #170743",
"f  c #1B1748",
"g  c #23015B",
"h  c #221556",
"j  c #06244B",
"k  c #182C49",
"l  c #1D3953",
"z  c #252C50",
"x  c #270B64",
"c  c #281663",
"v  c #2C146D",
"b  c #2C1A6C",
"n  c #2E1672",
"m  c #2F1973",
"M  c #301774",
"N  c #301A76",
"B  c #311B79",
"V  c #1A2966",
"C  c #244F45",
"Z  c #5D6352",
"A  c #E77850",
"S  c #1E8100",
"D  c #378908",
"F  c #368E0D",
"G  c #3A8C0C",
"H  c #299501",
"J  c #349303",
"K  c #3D9305",
"L  c #389607",
"P  c #3C9A03",
"I  c #398614",
"U  c #3C8B14",
"Y  c #3C831B",
"T  c #3CA300",
"R  c #3F8B39",
"E  c #468B0B",
"W  c #449404",
"Q  c #439B02",
"!  c #489906",
"~  c #45930B",
"^  c #4B940B",
"/  c #4C9B0C",
"(  c #539B0A",
")  c #468514",
"_  c #448B13",
"`  c #498D14",
"'  c #45851C",
"]  c #4A861D",
"[  c #468C1A",
"{  c #4B8C1C",
"}  c #51891E",
"|  c #449213",
" . c #4B9314",
".. c #449A17",
"X. c #4C9B12",
"o. c #45931B",
"O. c #4B931C",
"+. c #4C9B1B",
"@. c #579917",
"#. c #539C14",
"$. c #53941C",
"%. c #539D1B",
"&. c #4AA305",
"*. c #57A809",
"=. c #59B406",
"-. c #4DA418",
";. c #55A213",
":. c #5BAC13",
">. c #54A51D",
",. c #5CA41B",
"<. c #55AA18",
"1. c #5BAB1C",
"2. c #5AB515",
"3. c #5BB41B",
"4. c #61B90A",
"5. c #61AB18",
"6. c #75AD1F",
"7. c #63BC13",
"8. c #64B618",
"9. c #458421",
"0. c #4A8423",
"q. c #4C8B23",
"w. c #4B8629",
"e. c #528C24",
"r. c #528A2A",
"t. c #4D9323",
"y. c #4C9B22",
"u. c #4D992B",
"i. c #559725",
"p. c #539B22",
"a. c #578932",
"s. c #5D9738",
"d. c #649036",
"f. c #57A622",
"g. c #52AB23",
"h. c #6CAF30",
"j. c #5BC10F",
"k. c #5EC513",
"l. c #6AC80F",
"z. c #66C314",
"x. c #67C514",
"c. c #7BC72D",
"v. c #3EA17C",
"b. c #4B904A",
"n. c #6B9844",
"m. c #76964D",
"M. c #76AE43",
"N. c #75A44B",
"B. c #53B060",
"V. c #66D260",
"C. c #86CD34",
"Z. c #91E130",
"A. c #839B5B",
"S. c #8AA95C",
"D. c #95AF69",
"F. c #96AB6C",
"G. c #90CB4B",
"H. c #ACCF6F",
"J. c #B0DC69",
"K. c #ECF27F",
"L. c #351F82",
"P. c #362183",
"I. c #392488",
"U. c #0036A3",
"Y. c #413298",
"T. c #4636A4",
"R. c #4E3CB2",
"E. c #124794",
"W. c #25528D",
"Q. c #0C7CB0",
"!. c #5341BC",
"~. c #0D5AF3",
"^. c #0B66EC",
"/. c #0566FB",
"(. c #026BFD",
"). c #1867FC",
"_. c #0174FD",
"`. c #0976FA",
"'. c #0179FE",
"]. c #1377FD",
"[. c #1C7CFD",
"{. c #2162EE",
"}. c #3172FB",
"|. c #5D4CD2",
" X c #6452DE",
".X c #5759F7",
"XX c #6654E4",
"oX c #6855E8",
"OX c #6956EA",
"+X c #6B59EE",
"@X c #6E5BF5",
"#X c #635EFB",
"$X c #6D5DFB",
"%X c #755DFB",
"&X c #715FFD",
"*X c #5866FD",
"=X c #5A69FE",
"-X c #4B76FD",
";X c #6666FC",
":X c #6C61FD",
">X c #7361FF",
",X c #6171FD",
"<X c #35B39A",
"1X c #488EBF",
"2X c #0A9DDC",
"3X c #0D8AF6",
"4X c #0496FE",
"5X c #1A98FE",
"6X c #3586EC",
"7X c #2A86FE",
"8X c #378AF5",
"9X c #358CFE",
"0X c #398DFE",
"qX c #2697FE",
"wX c #3D92FE",
"eX c #3898FE",
"rX c #03ACF8",
"tX c #07B8FF",
"yX c #16B1F9",
"uX c #29B2FD",
"iX c #4797EC",
"pX c #4986FE",
"aX c #4998F3",
"sX c #4395FE",
"dX c #469CFE",
"fX c #4B9EFD",
"gX c #47A2FE",
"hX c #4EA1FE",
"jX c #52A3FE",
"kX c #5AA5FD",
"lX c #54BAFD",
"zX c #64A8FC",
"xX c #69ABFE",
"cX c #6ABAFE",
"vX c #71B2F7",
"bX c #74C1FD",
"nX c #5BF9E7",
"mX c #AAB482",
"MX c #B1CA84",
"NX c #8CB6FD",
"BX c #A1BBFE",
"VX c #89C4FE",
"CX c #99C1F2",
"ZX c #A5CAFE",
"AX c #B2CEFE",
"SX c #BAD6FE",
"DX c #CBCCCE",
"FX c #C3DAFD",
"GX c #C5E2FE",
"HX c #D5E3FE",
"JX c #EDF2FE",
"KX c #F2F6FE",
"LX c #F6F9FE",
"PX c #FEFEFE",
/* pixels */
"! 2.7.l.:.Q W 4.B.<XB.R e | :.7.+.+.0.' q.%.$.X.[ { } p.<.$.! &.! 7.l.1./ T / 7.8.x.5.W &.-.{ +.{ W ! O.%.+.^ P Q O.+... .E *.l.",
"! &.5.5.P / / W b.v.R W +.X.Q :.X.J O.r.0.0.~ D ` p p 0.] E )  .E E #.W )  .G Q 8.<.K *.! ~  .O.! Q _ t.O./ P ;.P Q ;.P ;.X.Q :.",
"5.+._ ] +.z.5.q.` ) ) t.j.5.{ J G #.z.y.I J e + + + + + + + + @ + + + + + + >  .L K { 5.1.q.E G O.3.g.9.G G 2.8.t.| J O.8.8.#.J ",
"8.X._ 0.~ z.7.+.} D ] | $.i.o.K | o.,.1.' L w   .                           O $.P ~  . .q.q.[ U 0.e.2.9._ ` %.f.q.[ J 9.i.4.$.J ",
"$.Q $.r.] [ ;.~ y.t.G D ] 0._ ' ' e p a s o.y g z f j j j j j j j k k k k j k s K ' e ) e p 0.w.0._ ] r.$.E G [ U <.,.0.t.{ w.o.",
"` ,.x.3.0.I Y y.u.z.5.' D ' p.> + @ X + 3 . I.>X&X*X'.`._._.`.`._.8XgXfX8X8X6X6   @ X X . + 8 g.r.I w.2.2.y.L J y.z.l.f.9.0.>.g.",
"L O.:.i. .W ) O.2.8.( _ ) ` $.*             Y.>X&X*X'.`._.'.'.'._.wXjXhXwXwX8X4 X           = :.( ` [ ` %.y.o.[ ^ =.5.r.K { +.2.",
"U G [  .W #.^ ~ @.W W X.{ ` ] k f f f f f . T.>X%X*X'.`.`.`.].]._.wXhXhX9X9X8Xj 4 6 6 7 6 j 7 e.! ^ ^ ] _ [ U +.q.~ U 9.[ U K ^ ",
"2.U P J ,.x.8.{ 0.E ;.3.q * z +X&X@X@X@X@X@X%X>X>X*X(.(.sXhXfXfXfXhXhXhXfXfXfXiXaXzXBXNXzXaXiX6 o q 3.q._ G +.=.3.y.L [ ' 2.:.K ",
"&.! _ L q.7.*.~ 0.' L U 7   f :X>X>X>X>X>X>X&X&X&X*X(./.sXjXhXhXhXhXhXhXhXhXhXjXfXxXZXZXxXfXiX4   t 7.{ p ` { ;.=.&.E ] q.t./ ~ ",
"P ~ #.! O. .W P 5.f.F D *   6 %X&X&X&X&X&X&X>X&X%X*X(./.sXhXhXhXfXhXhXhXhXhXhXhXgXzXCXZXxXfXaXX   O q.q.f.w.0.0._ K *.5.0.0.' X.",
"#.3.k.2.} D ' <.5.w 8 t |.XXXX%X&X&X&X&X&X&X;X{..X}.dXpXfXhXhXhXhXhXhXhXhXhXhXfXhXjXzXvXuXuXuX2X2X2XC 0 e >.q.' Y ,.7.x.@.0.w.0.",
"t.u.3.=.E ] 0.0.0.+   3 @X>X>X>X&X&X&X&X&X&X*X/.~.}.hXhXjXhXhXhXhXjXhXhXkXjXjXkXkXjXhXhXuXuXyXtXtXyXl % 5 -./ I 0.2.x.5.! ^ q.0.",
"o.o.[ | Q <.>.0.L =   & +X>X&X&X&X&X&X&X&X&X.X~.~.}.jXjXjXhXjXhXhXhXhXfXqX5X5X5X5X5X5XqXrXrXrXtXtXrX+     P &.=.3.u.@.( W :.7.~ ",
"` | J _ 8.l.w 9 t c x b @X>X&X&X&X&X&X&X&X&X$X.X.X-X7X9XsXsXsXhXhXhXhXhXSXFXFXFXSXFXFXFXSXGXSXbXcXcXDXDXDXZ 0 E 3.r.K H #.l.5.O.",
"' [ #.W ( @.X . 1 B B L.@X&X&X&X&X&X&X&X&X&X&X%X%X=X_._.[.9XsXhXhXhXhXjXKXPXPXPXPXPXPXPXPXPXPXVXVXVXPXPXPXZ   7 <.&.! ;.! #.[ D ",
"' p.j.<.&.~ =   & M N L.@X&X&X&X&X&X&X&X&X&X&X$X%X*X'.`.7X0XsXhXhXjXhXkXLXPXPXPXPXPXPXPXPXPXLXVXbXVXPXPXPXi   , W ( 8.z.;._ U 0.",
"{ ' i.-.) w z g h N N B @X&X&X&X&X%X&X&X&X&X&X&X%X=X3X[.9X0X0XsXdXwX9X0XAXFXFXPXPXPXPXPXPXPXLXvXvXcXFXGXGX1XQ.Q.w u ;.z.;._ G { ",
"K _ p     1 m B L.N N L.@X&X&X&X&X&X&X&X&X&X&X:X&X,X0X0X0X0X0X9X0X7X(._.qX4XkXPXPXPXPXPXPXPXKXjXdXhXlXlXlXtXtXrX+   - X.W [ { D ",
"%.[ D * . & m B B B N L.@X&X&X&X&X&X&X&X&X&X&X&X&X,X9X9X0X0X0X0X9X7X_.].hXfXxXPXPXPXPXPXPXPXKXkXgXkXbXbXbXyXtXyX&   8 T $.3.+.0.",
"{ [ I o   $ m B B M n B @X&X&X&X&X$X&X&X&X&X>X$X&X:X,X:XpX9X0X9X9X7X(._.fXdXxXPXPXPXPXPXPXPXKXjXdXhXhXhXhXgXgX6X&   8 P / j.>.s ",
"0.0.' *   $ N B B I.L.I.@X&X&X&X&X&X&X&X&X&X$X>X&X&X%X%X-X9X0X9X0X7X`.[.hXdXxXKXLXLXLXLXPXPXKXzXjXkXjXkXkXhXgXiX2   > q.U ~ O.O.",
"I q.{ *   $ B m I.+X$X@X&X&X&X%X&X&X&X&X&X$X>X&X&X&X&X%XpX9XwX9X9XsXhXfXhXhXhXzXzXzXxXfXHXPXPXKXKXKXKXLXJXvXbXvX&   q y.9.U ^  .",
"' q.) o   $ N N I.&X%X&X&X%X&X&X&X&X&X&X&X&X&X&X&X&X>X&XpX9X9X9X9XdXjXhXhXhXhXhXgXdXfX5XHXPXPXPXPXPXPXPXLXVXbXvXo   0 :.q.' D ' ",
"O.{ I &   1 N N I.@X>X&X&X&X&X&X&X&X&X&X&X>X&X:X&X&X&X&X-XwXpX9X9XsXfXfXhXhXhXjXjXjXjXeXHXPXLXPXPXPXPXPXLXbXvXvXj 3 7 L O.w.0.{ ",
"; ; > b N N N N I.@X%X&X&X&X&X&X&X&X$X&X$X&X&X&X&X&X&X&X:X&X,X9X0X7X].[.0X0XpXhXfXjXhXfXkXkXvXPXPXPXPXPXLXzXgXfX`.'.^.; = 8 { 2.",
"    1 B B B N N I.@X>X&X&X&X&X&X&X&X&X&X>X&X&X&X&X&X&X&X>X%X,X7X0X[._.(.9X0X0XhXjXhXhXhXhXeXzXLXPXPXPXPXPXxXgXgX'._.^.X   = Q *.",
". . 1 N B N B N P.%X&X&X&X&X&X$X&X&X&X&X$X>X&X&X&X&X&X&X>X>X;XpXpX-X}.}.9X0X0XfXdXfXjXhXkXdXxXLXPXPXPXPXLXxXgXgX3X4X3X&   > +. .",
"X   1 N B B B N I.@X&X&X&X&X&X&X&X&X&X$X&X>X&X&X&X&X&X&X>X$X&X&X%X&X&X&XpX9X9X9X8X0XhXfXjXgXzXLXPXPXPXPXLXxXjXjXtXtXrX6   ; e.) ",
"    $ N B B B N I.@X&X&X&X&X&X&X$X&X&X&X&X&X$X&X&X:X>X$X$X>X$X>X&X&X&X>XpX9X9X9X9XsXjXhXjXdXxXLXPXPXPXPXLXhX4X5XtXtXrX2   ; q.t.",
"X   1 N B B B N P.@X&X&X&X&X&X&X>X&X&X&X&X&X&X&X&X&X&X&X>X$X>X$X&X&X$X&X}.7X7X9X9X0XsXsXfXfXkXAXAXAXLXPXPXHXHXSXrX4X3X2   : 9.2.",
"    1 N B B B B I.@X&X%X&X&X&X&X&X&X$X>X&X&X&X&X&X&X&X>X&X&X&X>X&X&X:X$X}._.].7X9X9X9X8XdXjXhXqX4XgXLXPXPXPXPXJX/./.~.2   - I q.",
"    1 m B B B N I.>X>X>X&X&X&X&X>X&X&X&X&X&X&X&X&X>X$X>X&X&X$X&X&X>X&X&X[._.'.9X9X0XwX9XfXhXhXkXhXzXLXPXPXPXPXJX(./.^.4   > ..' ",
".   $ m B N B B B R.R.R.$X&X&X&X$X&X&X$X&X>X@X:X&X$X>X&X>X&X>X&X&X&X&X&X;X*X*X[.[.7X[.[.dXhXhXhXgXzXLXPXLXBXBXNX/.).^.2   > g.| ",
"o . $ m B B B B B v x B @X&X&X&X>X&X>X&X&X>X$X>X&X:X$X>X$X>X&X&X$X&X&X&X&X&X:X]._._._._.wXhXgXjXdXzXKXPXLX[./.(.).).~.2   , >.L ",
"X   1 N B L.B B B B N I.&X&X&X&X$X&X&X&X&X&X&X&X&X&X&X&X>X$X&X&X&X&X&X&X&X&X:X_.'._.'._.dXjXjXhXgXzXPXPXPXpX_.[.).).~.3   & s 3.",
"e w e z d d N B B B N I.@X&X&X&X>X$X>X$X&X&X&X&X&X&X>X&X&X&X&X&X&X&X&X%X&X&X&X=X=X=X*X;X}.}.9XhXhXkXZXAXZXfXeX8XU.U.W.i.u ) ] #.",
"q.O._ =   . m B B B N I.&X&X&X&X&X>X&X>X&X:X&X>X&X&X$X&X&X&X&X&X&X&X&X&X&X&X&X&X&X%X&X%X*X/.).hXhXfXqX5XqXjXkXiXX   0 =.&.&.:.u ",
"' 0.p.q   @ n B B B N I.&X&X&X&X>X$X&X&X&X&X>X$X>X$X>X&X&X&X&X&X&X&X&X&X%X&X&X&X&X$X$X&X}./.).hXhXhXkXkXkXhXhXiX2 $ r H #.7.g.O.",
"0.` #.,   @ n B B B B P.|.|.|.$X&X>X$X>X&X>X$X>X&X&X&X&X&X&X&X&X&X&X%X&X&X&X&X&X&X&X&X$X*X.X-X0X9XwXhXgXhXsXdX8X&   ; ` ^ #.+.O.",
"5.#.~ -   @ m B B M B M x x m $X>X$X&X>X$X>X&X&X&X&X>X&X$X&X&X&X&X&X&X&X&X&X&X&X&X&X&X&X&X%X$X(._.'.hXhXhX9X7X6X&   ; f.e.] [ 0.",
"z.8.#.:   @ m B B B B B L.B P.@X&X&X&X&X>X$X:X&X&X&X&X&X&X&X>X@X&X&X&X&X&X&X&X&X&X&X&X&X&X&X#X`.`.].dXhXhX0X0X6X&   > >.<.t._ U ",
"7.*.W ;   & m B B B N B M N L.@X&X&X&X>X&X>X&X&X&X&X&X>X&X&X&X:X&X&X&X&X&X&X&X&X$X&X&X&X&X&X&X{.).`.9X0X9X8X9X6X&   ; t.-.^ ^ ~ ",
"X.E @.O   # B B B B B N B N L.$X>X>X&X&X&X&X&X&X&X&X&X@X&X&X&X&X&X&X&X&X&X&X&X&X&X&X&X&X&X%X$X~./._.9XwX9X9X9X6X+   ; q.[ W ( 1.",
"H q.i.*.p i 6 3 f N N N B N N T.T.|.>X&X&X&X>X@X&X$X>X:X&X&X>X$X&X&X&X&X&X$X&X&X&X%X&X&X&X&X$X#X#X*X[.].].E.E.W.#./ y 9.0.9.:.l.",
"$.~ ! :.&.' -   $ N N N B N N n g I.>X&X$X>X:X>X>X$X&X&X&X>X$X>X>X&X>X$X&X>X&X$X&X&X$X%X$X&X&X&X&X$X`.`._.j   0 X.%.0.0.0.0.! :.",
"2.*.W I W &.;   1 B B B N B N L.v T.>X&X&X>X&X&X&X>X>X&X:X&X&X&X&X>X&X>X&X&X&X>X&X&X&X&X&X&X&X&X$X:X).'.`.j X t F ' 0.q.o.q.] ^ ",
"e.e.] [ } 5.8   2 N B N B N N N m B Y.Y.oX>X@X&X&X>X@X&X&X&X&X&X&X$X>X$X>X$X>X$X&X&X&X&X&X&X&X&X&X>X:X:X@XV   < ' ) 0.O.y.-._ ' ",
"0.0.q.w.[ | =   1 B B B N B N N B N b g XX>X>X>X>X>X>X>X&X&X&X>X&X&X&X&X&X&X&X&X&X&X&X&X&X&X&X&X&X&X>X>X>Xh . < r.{ 0.0.{ ~ J U ",
"_ t.l.3.O.) < , t b b b N B N B N B B n |.+XXX+XXX@X%X>X>X$X>X$X&X&X&X&X&X&X&X&X&X&X&X&X&X&X&X&X&X&XXXXX Xz = t f.j.y.0.] [ | f.",
"G 0.p.2.o.0.0.t.<.O   @ m B N B N N N N n n n N g !.>X:X&X&X>X&X$X&X&X&X&X&X&X&X%X&X&X&X&X&X$X&X&X@X4     ) q.0.0.p.>.9.Y e 3.l.",
"@.! ` ..{ ] 0.0.) X   # m B B B B N B B N B N B c !.>X%X>X>X@X>X&X&X&X&X&X&X&X&X&X&X&X&X>X&X>X>X>X@Xd   # u { 9.' 9.' 0.q.{ q.>.",
"l.:._ 0.0.[ { q.9.; ; < b b b m N B N B N B N B x R.@XXX%X>X>X%X&X&X&X&X&X&X&X&X%X&X&X&X@X+X+XoX+XXX7 - 7 =.O.w.r.J I q.t.q.0.{ ",
",.i.9.0.0.q.O.+.q.' ` E =   & m B N N M N N N B N M N g  X>X%X>X&X&X&X&X&X&X&X%X&X&X&X%XR.x m &   - 0.' n.J.H.N.n.I U O.+.O.9.' ",
"p 9.q.0.9.0.9.{ 0.+.#.^ *   # m B B B N B B B B B N B v  X>X>X>X&X&X&X&X%X%X>X>X>X>X>X>XR.v M X   O 0./ F.F.F.S.e.p { E _ q.q.q.",
"q.{ t.<.q.>.t.] q.8.7.{ 8 = > b v b n b b n M B N N B v |.+XoXOXOXOXOXOXOX+X+XoXoXXXXX+XT.x b < < < r.=.MXF.F.s.&.u.t.{ E { g.q.",
"K q.a -.3.3.0.9.W =.p.O.{ ` ^ =   . . . X   d B N N N N N v v n M n n n n M m           .   0 r.9.{ e.7.=.h.M.&.W 2.3.a.w. .! +.",
"t.3.e.p t.#.1.3.$.) 0.{ +.t.^ =             d B N N N N N N B N N N N N N N N 1   X X X     ; r.y.] 0.O.~ =.l.h.^ O.{ n.C.S.s.9.",
"1.>.t.q.0.q.x.l.h.A.w.w.f.k.p.< = ; < ; : = k M N N N n n b n b n N n N M B b : * - , = * o 8 $.8.e.0.0.q.3.C.G.S.9.D N.Z.J.mXd.",
"&.t.{ | _ D ..Q 3.M.0.S 0.:.e.0.p D X.q.w.i.w # & @ $ $ $ @ @ $ @ $ @ $ $ 1 : s D W <.] I ] ` W 2.7.D 0.Y  .C.c.N.d.a.s.M.C.C.@.",
"I ' t.s.m.N.I Y U ' A.N._ s w.a.,.N.w._ 0.d.i                               * a O.T K U _ o.O.&.W ;.n.A.s.w.X.d.m.n.D.m.a.u.&.y.",
"U D m.F.MXH.8.s.H t.G.H.c.w.Y s.Z.G.h./ Y r.i $ - o X o % % - % . % O % o X : r.7.#.J H o.u.k.;.E d.G.H.H.G.e w.A.J.J.G.n.w Y  .",
"9.r.s h.H.D.h.0.t.y.$.c.h.w.r.[ h.c.*._ 0.0.0.i.d.0.' a u d.a.a s a $.` a 9.p $.=.^ O.L U <.<.0.] q.+.C.D.h.' ] ^ l.H.S.b.w.a.b.",
"a.S.m.H S.s.w Y i.p.9.I h.N.m.n.U ^ K F ] 0.{ o.i.q.q.g.+.9.w.#.f.Y G G i.1.0._ P ^ } { U ' 0.0.0.] s U h.f...%.0.<.6.K.nXV.A oX"
};
