/* XPM */
static char *result[] = {
/* columns rows colors chars-per-pixel */
"64 64 251 2 ",
"   c #010101",
".  c #0A0707",
"X  c #040B02",
"o  c #02000A",
"O  c #0C020B",
"+  c #11050A",
"@  c #051202",
"#  c #0B1806",
"$  c #13170B",
"%  c #0B0016",
"&  c #170018",
"*  c #181816",
"=  c #221F1F",
"-  c #0C2405",
";  c #15270A",
":  c #083704",
">  c #193809",
",  c #1A2613",
"<  c #1C3613",
"1  c #213A0E",
"2  c #22251D",
"3  c #263818",
"4  c #1F0020",
"5  c #252522",
"6  c #2E3328",
"7  c #403D3A",
"8  c #0C4C06",
"9  c #1B4606",
"0  c #25480A",
"q  c #28540A",
"w  c #294715",
"e  c #2D5515",
"r  c #325711",
"t  c #335918",
"y  c #007700",
"u  c #2B6A09",
"i  c #376A0A",
"p  c #2C7507",
"a  c #347803",
"s  c #2C6811",
"d  c #386818",
"f  c #3A7819",
"g  c #324B21",
"h  c #365823",
"j  c #3B6423",
"k  c #3C7921",
"l  c #417114",
"z  c #447919",
"x  c #437D1B",
"c  c #467526",
"v  c #447D23",
"b  c #4A7E25",
"n  c #4A7E29",
"m  c #4E7534",
"M  c #000075",
"N  c #516344",
"B  c #646F58",
"V  c #6E6D67",
"C  c #837E7D",
"Z  c #E77850",
"A  c #1F8700",
"S  c #2C8901",
"D  c #348C04",
"F  c #3A8E04",
"G  c #398409",
"H  c #358C0D",
"J  c #3C8C0D",
"K  c #2A9401",
"L  c #339302",
"P  c #3B9303",
"I  c #349A00",
"U  c #3B9A01",
"Y  c #35920A",
"T  c #3C930B",
"R  c #3A9B0B",
"E  c #358513",
"W  c #3B8315",
"Q  c #378916",
"!  c #3C8B13",
"~  c #3C841B",
"^  c #3C9213",
"/  c #39A200",
"(  c #3F8B39",
")  c #458908",
"_  c #438E0C",
"`  c #449503",
"'  c #4A9504",
"]  c #449A02",
"[  c #4B9B04",
"{  c #44930C",
"}  c #4A940B",
"|  c #449B0B",
" . c #4C9B0B",
".. c #529A07",
"X. c #529C0C",
"o. c #438515",
"O. c #4F8214",
"+. c #448C14",
"@. c #4A8C15",
"#. c #44851C",
"$. c #4A861D",
"%. c #458B1A",
"&. c #4B8C1C",
"*. c #528C1D",
"=. c #459213",
"-. c #4B9314",
";. c #459B13",
":. c #4C9B13",
">. c #46931B",
",. c #4B931C",
"<. c #469B1B",
"1. c #4B9B1B",
"2. c #519514",
"3. c #549B14",
"4. c #599B15",
"5. c #52941C",
"6. c #539C1B",
"7. c #5A9B1C",
"8. c #639F1F",
"9. c #44A201",
"0. c #4AA204",
"q. c #4AA904",
"w. c #4DA40B",
"e. c #56A807",
"r. c #53A20B",
"t. c #5BAB0D",
"y. c #5AB507",
"u. c #4DA41A",
"i. c #54A314",
"p. c #5BA515",
"a. c #54AC14",
"s. c #5CAC13",
"d. c #54A41D",
"f. c #5CA41C",
"g. c #55AC1C",
"h. c #5CAB1B",
"j. c #4DB01A",
"k. c #5CB214",
"l. c #5DBB13",
"z. c #57B618",
"x. c #5CB31B",
"c. c #61BC0E",
"v. c #61AA17",
"b. c #61AC1B",
"n. c #62B315",
"m. c #63BC13",
"M. c #63B41A",
"N. c #63BC1B",
"B. c #6AB919",
"V. c #458421",
"C. c #4B8423",
"Z. c #468826",
"A. c #4C8B23",
"S. c #4D832A",
"D. c #4D8B2A",
"F. c #528C24",
"G. c #518528",
"H. c #538B2B",
"J. c #4D9323",
"K. c #4C9A22",
"L. c #4C9728",
"P. c #539323",
"I. c #539B23",
"U. c #5A9B23",
"Y. c #549129",
"T. c #58982A",
"R. c #568834",
"E. c #5C9734",
"W. c #639136",
"Q. c #4DA425",
"!. c #54A723",
"~. c #5CA422",
"^. c #5CAC22",
"/. c #59B222",
"(. c #5FA635",
"). c #65A72A",
"_. c #66B725",
"`. c #67A737",
"'. c #75B335",
"]. c #5CC307",
"[. c #5DC312",
"{. c #63C30D",
"}. c #66C80B",
"|. c #65C413",
" X c #69C313",
".X c #69C815",
"XX c #64C31A",
"oX c #75D116",
"OX c #78C72F",
"+X c #3EA17C",
"@X c #538F49",
"#X c #6A9746",
"$X c #759849",
"%X c #6C9557",
"&X c #789A57",
"*X c #75A349",
"=X c #75AE4F",
"-X c #769167",
";X c #53B060",
":X c #7CAB68",
">X c #6BCD51",
",X c #84C439",
"<X c #8BD634",
"1X c #91E130",
"2X c #839B5C",
"3X c #8CAD5B",
"4X c #849173",
"5X c #85A46D",
"6X c #95A769",
"7X c #8EB26D",
"8X c #A3B778",
"9X c #90CF4A",
"0X c #A3D55A",
"qX c #A3E647",
"wX c #9FC764",
"eX c #A9D069",
"rX c #ABCA74",
"tX c #BEE777",
"yX c #4A42C5",
"uX c #48D6C1",
"iX c #8C8C84",
"pX c #96958C",
"aX c #969791",
"sX c #A39E98",
"dX c #9AAF8C",
"fX c #A6A599",
"gX c #A6A49D",
"hX c #AEB990",
"jX c #8C87BF",
"kX c #ACA7A6",
"lX c #ACAAA4",
"zX c #B4ADA4",
"xX c #B1A9AB",
"cX c #BBB3AA",
"vX c #B6B6B0",
"bX c #C3BCB2",
"nX c #AFC98C",
"mX c #B8CFAF",
"MX c #C9C2B7",
"NX c #D7D1CD",
"BX c #E3DACC",
"VX c #E7DED2",
"CX c #EAE3D7",
"ZX c #F4EADD",
"AX c #E0DBE0",
"SX c #EAEAE9",
"DX c #F9EFE3",
"FX c #FCF2E5",
"GX c #FFF7EB",
"HX c #FFFAED",
"JX c #FDFCF2",
/* pixels */
"[ n. X Xs.` | y.;X+X;X( f =.t.N.1.,.V.V.J.6.I.-.&.V.$.I.d.*.' U  .m.|.^.} / [ B.B..Xv.T 0.a.&.,.,.' ] ,.1.1.X.I ' 5.K.<.-._ t..X",
"| ] n.h.U  . .' @X+X( ) <.:.] t.3.I 5.C.C.A.} I 3.5.C.P.5.`  .i.` ..s.9.} 6.| U n.p.P r.[ { ,.>.[ P o.J.J.' I i.U | w.U r.3.` s.",
"b.,._ V.1.|.n.A.&.=.o.L.{.h.,.K H 6.|.K.G Y ! 1.XX.XD.J +.-.m.XXh.] U @.z._.M.3.T P $.n.~.&.{ _ ,.k.Q.A.T J m.x.J.-.L ,.B.M.3.L ",
"m.:.+.C.{ m.m.5.D.H %.=.5.U.&.F =.%.f.h.#.D A.S.b.y.} ! P } s.|.i.I T n u.x.N.5.I { -.,.D.C.o.! C.F.z.Z.! o.7.d.&.%.D V.T.{.5.D ",
"5.] 5.A.V.&.3.| K.J.! F $.V._ J.,.H %.b C.5.! #.C.+.! C.@.H ` 3.' :.$.V.J J A.F.{ A.o.T F C.D.D.C.+.#.F.5.+.! &.o.a.d.C.%.&.A.>.",
"@.f. Xx.G.H Q K.L. Xp.V.H #.b.l.x.J.$.V.b..Xh.V.%.&.A.>.J.,.T I 3.K.u.1.V.E x L.h.b.H.S.R.x.[.h.A.o.b M.m.K.Y I K.XX Xf.V.C.j.!.",
"P F.s.Y.-.) +.,.l.n...=.! %.5.6.*.$.&.&.' c.M.&.@.@.A.1.5.{ ' @.' V.5.&.V.$.W A.B.).@.&X2X#XI.k...@.+.-.1.K.>.@.| y.b.H.F $.5.j.",
"^ H @.-.] 3.} { 7.{ ` :.&.@.%.=.+.$.1. .] ..<.%._ %.,.=.T U &.C.=.] =.+.&.D.#.-.E.*XU.,X&X@XS.,.] X.} #.+.%.^ ,.A.` ! A.%.! ] } ",
"k.+.L I 6..XM.*.b _ 4.x.u.>.%.K J $.J./.p.U ] C./.b.D.P ! J.I.Q.d.=.I _ 1.<.<.2X6X&XrX<XXXE.$.$.5..Xz.A.+.H ,.y./.K.Y &.%.z.s.P ",
"0.} _ Y ,.B.t.} V.o.P ;.J.A.C.#.%.C.A.,.r.` @.1.XX_.n -.&.V.s.l.9.o.$.$.&.@.+.`.wX8X5X`.~.n +.Q V.f.|.A.b &.@.i.y.0._ $.$.J. .} ",
"U ;.d.| %.-.P / b.g.Y D ,.A.J.,.C.C.C.%._ t.t.9.3.2.P.N.P.J -.,.I s.!.A.T T A./ y.wX6X@XE 7.m.J.#.#.C.C.I.A.C.A.+.F ..h.C.v %.-.",
"-.x.|.k.*.D #.i.M.|.1.%.L V.A.:.#.V.o.C.2.l.N.5.D ) B..Xz.&.W $.1.x.l.5.+.L P G.r.`.$Xz ~ d.m.N.F.E V.f.[.z.C.%.o.h..X X7.A.S.C.",
"J.Q.z.y.{ O.C.C.A.P.~ j   - . O   s #.S.R.I.q.&.C.] 4.m.o.o ; # . 0 p.-.T @.$.@.u.) +.C.C.b A.3.w 3 v r.n.q.} +.C.x.m.n.[ -.A.V.",
",.>.%.@.| h.1.S.I >.T.f   X   X   c _.I y { >.q.|.u.T 3.d   X     # :. .3.K.>.$.&.Y &.g.I.A.A.$., o H. .2.{ ] e./.L.7.' ` t.m.{ ",
"@.+.D +.k.}.I.=.D j *.z   #   @   d S dXhXk j G.F.d u s 0   X X   # s z m.z.K.>.o.K +.U.z.d.E =.z X.&.f U U 4.}.N.H.U K 4. XM.@.",
"%.%.3.] [ p.V.-.&.              X 4   BXJX                X             p.y.;.=.6.&.J C.H.! ,.} [ v.;   d.i.] s.s.U ..i.] 3.&.H ",
"x I.[.a.[ { V.b &.- X 9 u q   X   *   fXbXpXsXsXiX  $ @ X   @ @ @ @ @ - l W ` v.[.P.&.o.V.<.N.M.r.{ > ; 5.5.p.] U [ M.|.p.@.! C.",
"&.V.I.l. .U o.        q 0.z   @     *     VXHXHXBX  *     X   X             _ k.Q.u.&.! H =.7.m.e.` #     0 p.] H ..m.|.X.@.Y &.",
"P +.V.:.] 3.3.s i l u x s.) o X X     *   BXGXFXNX  * O X   d j r s d s t z  .P &.A.{ } &.J C.3.` 3.$.d - 0 | } p.] ' :.] $.$.F ",
"6.@.P P -. XN.a.] [ [ ]..XY.  @   * 2 5   BXDXGXBX  *   X   p./.u.| |  .l.}.f.&.Q #.7.x.Q.A.$.V.C.l.}.d.$ > 2.m.|.6.{ I 5.x.1.V.",
"&.&.H { &.h.y.' U { $.i.{.O.  2   cXDXCXCXCXyXkXBX  * X X o &.a.J.! ! C.h.c.Y.C.~ ~ F.l.i.o.~ V.V.U.m.=.+ @ - l x.&.+.U } [.d.V.",
"C.C.,.J.&.+.=.'  .k.A.E -.W   5   MXHXFXHXCXM jXBX  =     o f #.V.,.<.C.v P.C.J.X.C.C.@.$.$.1.k.S.V.@.x ,     3 1.@.&.&.! =.,.-.",
"Q C.A.<.J.o.H ` J.N.z.#.Y f o 2   bXGXDXDXDXvXAXBX    +   . f Y &.h.g.A.Q $.S.k.m.P.~ E E F.M..Xf.V.E ~ ,     w ! $.I.Q.#.Q } -.",
"&.V.+. .J.&.$.$.J.6.6.C.! c   5   MXHXDXFXFXGXGXVXiXB   $ o v V.o...s.A.V.V.=.y.m.:.F W A.9.t.m.9.-.V.v ;     w $.$. .k.C.$.H $.",
",.A.Q H $.A.p.&.C.~ #.$.K.k   5   MXHXFXFXFXFXFXFXJXcX  5 . f C.C.+.$.H o.6. .9.:.T >.P.V.A.| 5.{ 0.s.P.< :   w H.x.i.| :.C.V.&.",
"1.,.C.E b d.}.M.5.W ! l - $   *   bXHXFXFXFXFXFXFXHXcX  5   - , C.,.&.o.d..Xb.;.I *.M.M.;.C.V.H @.i.l.|.6.Q # . 2 c XXX.L =.*.k.",
"+.-.-.@.C.F.x.y.[ C.>.a   $ $ 7 * MXHXDXFXFXFXFXFXHXcX  5 @     f #.&.V.} p.p.` _ P s.i.] &.G.Z.Q +.9.k.+.E < $   d n.[ H T 9.e.",
"J +.5.n.h.Z.#.#.&.,.,.j   #   sXGXDXFXFXFXFXFXFXFXJXcX  4     X   > K.,.@.@.} s.x.a.U } k.h.V.o.~ I.k.@., > *.#.  r  .@.b.x.3.+.",
"%.W 5.|.p.' #.~ H.z.1.k   N V bXGXDXDXFXDXDXFXFXZXCXfX8 h q -     # S.%.v o.f U.!.5.T @.n.).b v x k.^.V.; > 1.+.  e -.b ^.].P.) ",
"A.a.[ J.@.] &.C.,.w.T k   pXJXGXHXHXHXHXHXHXHXHXCX  p U.<.9.q   X X X O O O o o +   + O O $ $ $ $ $ + O   3 1.o.  t s.*.~ ;.A.P.",
"b..X7.f ~ &.1.,.>.I >.I.e.:XzXzXzXzXzXzXzXzXzXcXfX  f ] H F.w   X           . X                   @ W c + ; h d x F.}.h.~ W S.M.",
"k.5.C.&.C.C.1.-.b -.P p..X)                       o i 5.! T w   @ X X     X       X   X X X X X   * A.` , X   w D.C.P.C.&.$.H Z.",
"&.x i.[.I.$.T %.h.B.p.]  .%.E._.`.n Z.h & 2 , 4 h &.&.j.K.! F J >   X               X             + x.-.  * G.c.^.S.! %.s.l.+.#.",
"&.&.F.N.!.! I } t.}.B.[ I ] 4. X{.,.V.h 4 5 2 @ q $.A.6.g.J.,.I 1 # @         .         * 3 6 5 , 3 f.C.3 w 6.c.c.K.=.I 4.n./.=.",
"&.&.! J.#.P p.w.I r. .` k.[ ` ..X.d   iXgXsXpXI P.h.C.C.=.,.V.5.] @.<   @ X .   X X @ X a 9.I K o.Z.< 3 C.C.} ] i.U [ h.] 2.d.R ",
",.%.R K o.U.|.N. .U ` c..XN.3.U u.j   iXkXkXaXq.m.].e.J J A.1.J.f.%.:               o   B 7XdXmX=XP ,   6.x.M.3.I r.m. Xb.} C.h.",
"1.@.-.H C.7.n.p.[ | ' p..Xs.' U ' j   iXkXgXaXT.`.>X`.F ! #.K.L.S.Q 3 < 3 3 $ @ 2 w h : -XsXNXSX3XU g < $.x.b...I [ t. X3.' C.4.",
"$.&.+.6.P.b X.[ | n.3.` t.[ ' ^.p.t   iXlXgXgXdXvXGXmXS R.#.D P L L e./ [ 0.8   E F [ U ` ' S I K K 5.6.$ w  .] n.w.[ t.` 0.s.#.",
"o.V.f.}.x.>.K 0.c._.m.X.I } v.|.XXj   iXlXgXgXsXvXAXnXy.T.>.%X:X-X&X:X:X%X=Xb i =X%X%X%X5X:X-X%X5X5XE.l.> : } c. XB.3.K 2.c.^.>.",
"C.$.r. X6.] { ' t. Xt.`  .' X.m.x.h   iXxXgXgXkXgXsX:Xy._.9.sXvXxXxXxXxXxXxX#Xq.dXxXvXlXlXzXlXkXSXSX%Xe.< > :...n.f.' @.} 6.<.,.",
"h.3.` 6.| r.b. .` 3.` r.m.r.` 2.&.b f B B aXkXgXgXxX4Xu c a V V 5X:X5X-X7X7X(.I %X-X5X5X-XV iXgXiXsXG.@.. q f.{ C.C.+.d.F.&.$.$.",
"|.M. .I 3.m.XXn.[ I 3.M.}.M.5.L +.C.d.q   aXlXgXgXxX4X  % O     ' I K  .y.].M.J.K F y.y.u   C lX=   ! Y + 3 !.I.v H V.g.g.&.>.! ",
"m.r.] [ ' y.B...] [ ` r.|.5.@.! V.V.G.g   #X%X6 m =Xm   j -.w & S.>.u.;.h.N.4.{ =.&.5.b.f   m =Xh = +.o.- * L.:.S.%.L ,.<.{ } { ",
"3.) 4.n.3.' @.` p.m.3.} ,.+.V.T.n.~ +.e   ..0.  9 [ G X x 3.9   n T.l.w.[ 3.{ r.h.A.-.X.d   $...> % ).k.+ 1 A.$.1.f.F.A.&.' ..h.",
"I A.T.].F.S.#.s.m. XY.S.Q Q H.{..XP.Q 9 O N.^.% w ~ n   v F.1   F.{.l.(.} Y }  X[.L.I I d   ,.Y.< + B.|.* : E S.k.k.n V.C.V.s. X",
"&.' | p.] &.A.A.C.f.J.V.&.} [ t.t.] ,.e   r.~.o e 6.f   f ,.0   ) r.M.' ] :.I r.h.C.A.^ s   f A.<   *.f.- > A.] | ,.C.A.C.A.[ s.",
"k.e.P Q ' e.h.D.V.C.C.n x.y.[ | } [ n.i   _ 1.  t x.&.  p P.w   | ] ' ] e.k.w.+.~ S./.Q.s   f D.3 + _ +.* 0 k.| P o.C.V.,.,.$.} ",
"F.A.$.o.&.l.l.-.Q H &.b.XXM.-.I ! ,.|.r   U T   e ^.@.  s %.3 X f.>.+.A.|.}.u.#._ x.N.k.d   f K.< $ @.%.; 0 m.K.#.%.C.,.K.1.%.! ",
"V.A.D.C.,.=.` $.&.@.U 9.z.,.I 2.@.I ;.0   d.U.  r a.f   x >.9 . $.S.C.+.y.7.H ! &.w.L %.t   c A.9 X S.H.o ; +.$.V.J.C.C.&.T Y ! ",
"o.Y.|.z.&.@.#.5.{.n.5.H H +.d.[.N.x p >   #.A.  > f e   f l ;   C./.P.Q ~ &...s.Y.#.P A.j   j c < X j S.#.d o.C.u.[.I.C.$.&.;.f.",
"J C.I.l.>.C.$.F.n. X5.%.Y o.A.x.!.t                             *.}.|.6.^ Y ..m.l.A.V.F.d             O Y.} &.V.C.I.d.V.#.W x.{.",
"3.' @.<.$.V.V.V.@.4.%.&.+.&.Z.V.A.f q 3 3 w q 9 9 q 0 0 w 9 0 q P X.s.9.;.6.I r.s.U V.S.j 1 0 q q > 9 e O.#.$.$.V.V.$.V.V.%.A.d.",
" Xk.O.V.C.%.J.A.V.K +.@.A.,.%.o.S.T.|.U.C.,.9._ r.XXs.-.{ { n.|.q.] _ q.B.x.L.R ] &.u.A.C.-.2..XN.w.` %.R.y.} C.H.D E A.Y.A.V.&.",
"f.P.C.C.V.A.,.1.A.o.+.@.1.1.@.C.$.W U.p.v C.&.$.' c.M.C.! { r.|.).=.+.I. X{.Y.>.J $.;.K.C.&.} 8. Xk.F.z #XeXeX2X#Xo.! -.1.>.V.A.",
"v V.A.C.V.v $.&.C.1.3.' C.&.C.F.F.#.J E V.C.v 6.0.] >.C.C.%.] 5.,.,.&.C.Y.r.` ] 5.+.D ! V.V.$.o.*.A.C.:.5X7X6X5XD.V.$._ +.J.A.V.",
"A.&.5.j.D.g.J.$.A.B.m.*.+.@.5.b.|.P.#.D +.&.1.S.M.s.P A.J.C.&.P F ,.&.A.S.! } m. Xi.Y L ,.J.J.C.H #.Y.y.nXrX2X`.q.L.P.*._ A.u.A.",
"{ C.b u.x.x.C.V.` y.I.>.&.@.] y.x.1.A.$._ I >./.s.Y `.1X.XU.V.+.=.` @.@.&.S.&.t.m.D.o.=.+.;.l.C.&.&.A.XXy.8.=X/ ' a.x.S.S.$.{ ,.",
",.z.J.b D.3.h.M.5.o.$.&.1.P.}  .&.C.z.h.1.o.C.,.[ wX0X0X3XD.$.@.=.} ' &.&.*.&.] 5.v 5.,.J Y %.G.I.C.V.@.} q.oX'.} ,.&.#X,X9XW.V.",
"h.d.P.A.C.A.|.}.'.2XD.n Q.}.b.C.&.D.XXXX,.C.C.F.6XtXqXeX6XH.+.>.-.$.H _ g.[.&.&.$.P.m.2._ @.! P.B.D.A.C.A.).<X0X3XV.G =X1XtXhXW.",
";.J.&.=.o.S :.| x.`.S.S S.a.F.V.$.D :.P.C.J.+.C.#Xy.&XOX,.V.$.&._ *.+.+.X.k.A.C.L [ b.&.! $.@.] k.l.G C.Q } oX,X*XW.R.E.`.<X,X4.",
"J %.D.R.2X`.x #.<.V.2X*X+.n S.R.f.*X~ ! C.G.#X(.^.D.E.H.C.~.T.F.A.,.2.@.! V.C.V.,.9.P Q &.A.,.9.] X.#X2X*XS.} E.2X2X6X'.S.E.9.K.",
"+.D $X6XnXrXB.H.K ,.9XrXOXS.f `.<XqX'.` V.#.#XqX9X(.f k '.<XoXE.n I.M.p.{ #.~ H.N.i.K L >.Q.[.r.) W.9XrXrX'.f A.2X0XeX9X#Xp v :.",
"#.D.G.'.rX7X).C.A.1.,.OX_.S.D.%.'.'.e.+.A.C.&.).*XL.,.C.S.$X).S.C.A.p...b A.#.6.t.} -.^ ! a.h.V.A.A.1.,XwX_.$.C.] oXeX3X@X@XF.@X",
"Y.6X#XK 3X#XA ~ P.I.A.~ ).*X2XW.Q 2.` H #.C.%.=.*.V.Z.^.1.f n 3.7.~ H Q 7.h.n =.I ' $.&.! #.b $.C.$.V.+.`.T.<.6.$.0.<XBXuX>XZ yX"
};
